<?xml version="1.0" encoding="UTF-8"?>
<svg width="511px" height="520px" viewBox="0 0 511 520" version="1.1" xmlns="http://www.w3.org/2000/svg" xmlns:xlink="http://www.w3.org/1999/xlink">
    <!-- Generator: Sketch 50.2 (55047) - http://www.bohemiancoding.com/sketch -->
    <title>Artboard 2</title>
    <desc>Created with Sketch.</desc>
    <defs></defs>
    <g id="Artboard-2" stroke="none" stroke-width="1" fill="none" fill-rule="evenodd">
        <g id="suspect-board" transform="translate(1.000000, 1.000000)">
            <rect id="Rectangle-path" fill="#101820" fill-rule="nonzero" opacity="0.15" x="223.941007" y="428.783352" width="89.5403172" height="89.6273077"></rect>
            <rect id="Rectangle-path" fill="#E6E8E8" fill-rule="nonzero" x="223.941007" y="420.380495" width="89.5403172" height="89.6273077"></rect>
            <rect id="Rectangle-path" stroke="#3B505B" stroke-width="2.85" stroke-linecap="round" stroke-linejoin="round" x="223.941007" y="420.380495" width="89.5403172" height="89.6273077"></rect>
            <polygon id="Shape" fill="#101820" fill-rule="nonzero" opacity="0.15" points="401.492743 71.8235165 491.03306 71.8235165 491.03306 142.316264 471.926567 161.450824 401.492743 161.450824"></polygon>
            <polygon id="Shape" stroke="#3B505B" stroke-width="2.85" fill="#E6E8E8" fill-rule="nonzero" stroke-linecap="round" stroke-linejoin="round" points="401.492743 63.6963187 491.03306 63.6963187 491.03306 128.476264 466.095858 153.333132 401.492743 153.333132"></polygon>
            <polygon id="Shape" fill="#101820" fill-rule="nonzero" opacity="0.15" points="0.465317164 331.836813 90.0151306 331.836813 90.0151306 402.32956 70.8991418 421.464121 0.465317164 421.464121"></polygon>
            <rect id="Rectangle-path" fill="#101820" fill-rule="nonzero" opacity="0.15" x="418.937388" y="335.81011" width="89.5403172" height="89.6273077"></rect>
            <rect id="Rectangle-path" fill="#E6E8E8" fill-rule="nonzero" x="418.937388" y="327.407253" width="89.5403172" height="89.6273077"></rect>
            <rect id="Rectangle-path" stroke="#3B505B" stroke-width="2.85" stroke-linecap="round" stroke-linejoin="round" x="418.937388" y="327.407253" width="89.5403172" height="89.6273077"></rect>
            <rect id="Rectangle-path" fill="#101820" fill-rule="nonzero" opacity="0.15" transform="translate(259.833168, 260.017615) rotate(-9.090000) translate(-259.833168, -260.017615) " x="154.775948" y="133.024209" width="210.11444" height="253.986813"></rect>
            <rect id="Rectangle-path" fill="#FFFFFF" fill-rule="nonzero" transform="translate(258.354514, 250.711172) rotate(-9.090000) translate(-258.354514, -250.711172) " x="153.297294" y="123.717765" width="210.11444" height="253.986813"></rect>
            <rect id="Rectangle-path" stroke="#3B505B" stroke-width="2.85" stroke-linecap="round" stroke-linejoin="round" transform="translate(258.354514, 250.711172) rotate(-9.090000) translate(-258.354514, -250.711172) " x="153.297294" y="123.717765" width="210.11444" height="253.986813"></rect>
            <rect id="Rectangle-path" fill="#101820" fill-rule="nonzero" opacity="0.15" x="154.029478" y="133.086429" width="210.11444" height="253.986813"></rect>
            <rect id="Rectangle-path" fill="#F4F2F2" fill-rule="nonzero" x="154.029478" y="123.656978" width="210.11444" height="253.986813"></rect>
            <rect id="Rectangle-path" stroke="#3B505B" stroke-width="2.85" stroke-linecap="round" stroke-linejoin="round" x="154.029478" y="123.656978" width="210.11444" height="253.986813"></rect>
            <rect id="Rectangle-path" fill="#101820" fill-rule="nonzero" opacity="0.15" x="154.029478" y="133.086429" width="210.11444" height="253.986813"></rect>
            <rect id="Rectangle-path" fill="#101820" fill-rule="nonzero" opacity="0.15" x="191.710672" y="9.32489011" width="89.5403172" height="89.6273077"></rect>
            <rect id="Rectangle-path" fill="#101820" fill-rule="nonzero" opacity="0.15" x="11.946306" y="86.4524725" width="89.5403172" height="89.6273077"></rect>
            <rect id="Rectangle-path" fill="#FFFFFF" fill-rule="nonzero" x="154.029478" y="123.656978" width="210.11444" height="253.986813"></rect>
            <rect id="Rectangle-path" fill="#E6E8E8" fill-rule="nonzero" x="191.710672" y="0.922032967" width="89.5403172" height="89.6273077"></rect>
            <rect id="Rectangle-path" stroke="#3B505B" stroke-width="2.85" stroke-linecap="round" stroke-linejoin="round" x="191.710672" y="0.922032967" width="89.5403172" height="89.6273077"></rect>
            <path d="M463.712295,340.686429 C463.712295,340.686429 463.712295,283.605934 455.317593,153.428187" id="Shape" stroke="#3B505B" stroke-width="2.85" stroke-linecap="round" stroke-linejoin="round"></path>
            <polygon id="Shape" stroke="#3B505B" stroke-width="2.85" fill="#E6E8E8" fill-rule="nonzero" stroke-linecap="round" stroke-linejoin="round" points="0.465317164 323.719121 90.0151306 323.719121 90.0151306 388.48956 65.0779291 413.346429 0.465317164 413.346429"></polygon>
            <path d="M236.485578,13.1365934 L191.710672,41.4914835" id="Shape" stroke="#3B505B" stroke-width="2.85" opacity="0.2" stroke-linecap="round" stroke-linejoin="round"></path>
            <path d="M446.267649,78.1351648 L349.738078,137.278352" id="Shape" stroke="#3B505B" stroke-width="2.85" stroke-linecap="round" stroke-linejoin="round"></path>
            <path d="M446.552537,78.1351648 L236.485578,13.1365934" id="Shape" stroke="#3B505B" stroke-width="2.85" stroke-linecap="round" stroke-linejoin="round"></path>
            <path d="M56.7212127,88.6672527 L45.2402239,339.574286" id="Shape" stroke="#3B505B" stroke-width="2.85" stroke-linecap="round" stroke-linejoin="round"></path>
            <rect id="Rectangle-path" fill="#E6E8E8" fill-rule="nonzero" x="11.946306" y="78.0496154" width="89.5403172" height="89.6273077"></rect>
            <path d="M73.5011194,157.563077 C73.1899932,157.563088 72.88708,157.46313 72.636959,157.277912 L64.4416791,151.051813 C61.8938178,151.511663 59.3101595,151.743877 56.7212127,151.745714 C39.0011754,151.745714 24.5858396,141.137582 24.5858396,128.115055 C24.5858396,115.092527 39.0011754,104.484396 56.7212127,104.484396 C74.44125,104.484396 88.8470896,115.083022 88.8470896,128.115055 C88.8470896,135.957088 83.6621269,143.181264 74.9255597,147.591813 L74.9255597,156.146758 C74.926198,156.689226 74.6212489,157.18571 74.1373694,157.43 C73.9374529,157.520068 73.7203395,157.56548 73.5011194,157.563077 Z" id="Shape" fill="#F4F2F2" fill-rule="nonzero"></path>
            <path d="M56.7212127,105.91022 C73.6815485,105.91022 87.4226493,115.852967 87.4226493,128.115055 C87.4226493,135.900055 81.8863246,142.734505 73.5011194,146.707802 L73.5011194,156.137253 L64.8025373,149.530934 C62.1409948,150.05765 59.434273,150.321899 56.7212127,150.31989 C39.7608769,150.31989 26.0102799,140.377143 26.0102799,128.115055 C26.0102799,115.852967 39.7608769,105.91022 56.7212127,105.91022 Z M56.7212127,103.058571 C38.2129851,103.058571 23.1613993,114.294066 23.1613993,128.115055 C23.1613993,141.936044 38.2129851,153.171538 56.7212127,153.171538 C59.1837234,153.169707 61.6419581,152.966245 64.0713246,152.563187 L71.7822948,158.409066 C72.2768257,158.784624 72.8803692,158.988226 73.5011194,158.988901 C73.9391539,158.989176 74.3713522,158.88834 74.7641231,158.694231 C75.7356335,158.21326 76.3503358,157.222149 76.35,156.137253 L76.35,148.456813 C85.1055597,143.770604 90.2715299,136.270769 90.2715299,128.115055 C90.2715299,114.294066 75.219944,103.058571 56.7212127,103.058571 Z" id="Shape" fill="#3B505B" fill-rule="nonzero"></path>
            <path d="M56.7022201,142.877088 C56.3551387,142.879437 56.0185369,142.758143 55.7525933,142.53489 C54.3661381,141.641374 44.4900187,135.13011 42.6762313,130.890659 C40.6915112,126.261484 42.5147948,120.681758 46.7311381,118.457473 C47.8786433,117.839565 49.1601759,117.513159 50.4631716,117.506923 C52.8496846,117.518126 55.1158929,118.557092 56.6832276,120.358571 C58.2468639,118.557549 60.5100476,117.518383 62.8937873,117.506923 C64.1967831,117.513159 65.4783157,117.839565 66.6258209,118.457473 C70.8516604,120.681758 72.6654478,126.261484 70.6807276,130.890659 C68.8669403,135.139615 59.0193097,141.631868 57.6043657,142.53489 C57.3521613,142.74983 57.0333944,142.870743 56.7022201,142.877088 Z" id="Shape" fill="#EA6852" fill-rule="nonzero"></path>
            <path d="M62.9317724,118.951758 C64.0046922,118.953886 65.0608694,119.218186 66.0085634,119.721703 C69.5886567,121.622802 71.117556,126.375549 69.4082276,130.329835 C67.6988993,134.284121 57.5283955,140.975989 56.768694,141.403736 C56.768694,141.403736 56.768694,141.451264 56.768694,141.451264 C56.768694,141.451264 56.768694,141.451264 56.768694,141.403736 C56.0184888,140.975989 45.7910075,134.198571 44.1291604,130.329835 C42.4673134,126.461099 43.9582276,121.603791 47.5383209,119.721703 C48.4826207,119.218242 49.5357191,118.953896 50.6056157,118.951758 C53.2553699,119.008012 55.6534522,120.536213 56.8256716,122.915549 C57.9929924,120.536212 60.3886229,119.007238 63.0362313,118.951758 L62.9317724,118.951758 Z M63.0362313,116.10011 C60.7567589,116.111483 58.5555412,116.93353 56.8256716,118.419451 C55.0911895,116.935032 52.887605,116.113358 50.6056157,116.10011 C49.0733838,116.104094 47.5648679,116.479143 46.2088433,117.193242 C41.3467537,119.759725 39.2385821,126.147418 41.460709,131.451484 C43.4359328,136.052143 53.0271642,142.411319 54.964403,143.666044 C55.4719806,144.078112 56.1056643,144.30297 56.7591978,144.302912 C57.4138892,144.300285 58.047699,144.072026 58.5539925,143.656538 C60.5007276,142.411319 70.0824627,136.052143 72.0481903,131.451484 C74.3177985,126.147418 72.2096269,119.759725 67.3475373,117.193242 C65.9926027,116.476283 64.4833706,116.101055 62.9507649,116.10011 L63.0362313,116.10011 Z" id="Shape" fill="#3B505B" fill-rule="nonzero"></path>
            <rect id="Rectangle-path" stroke="#3B505B" stroke-width="2.85" stroke-linecap="round" stroke-linejoin="round" x="11.946306" y="78.0496154" width="89.5403172" height="89.6273077"></rect>
            <ellipse id="Oval" fill="#3B505B" fill-rule="nonzero" opacity="0.15" cx="56.7212127" cy="93.4104945" rx="6.40048507" ry="6.4067033"></ellipse>
            <path d="M101.486623,123.752033 L56.7212127,90.2641758" id="Shape" stroke="#3B505B" stroke-width="2.85" opacity="0.2" stroke-linecap="round" stroke-linejoin="round"></path>
            <rect id="Rectangle-path" stroke="#3B505B" stroke-width="2.85" stroke-linecap="round" stroke-linejoin="round" x="154.029478" y="123.656978" width="210.11444" height="253.986813"></rect>
            <path d="M463.712295,340.686429 L418.937388,369.830275" id="Shape" stroke="#3B505B" stroke-width="2.85" opacity="0.2" stroke-linecap="round" stroke-linejoin="round"></path>
            <path d="M462.268862,341.247253 L420.086437,331.751264" id="Shape" stroke="#3B505B" stroke-width="2.85" opacity="0.2" stroke-linecap="round" stroke-linejoin="round"></path>
            <path d="M56.7212127,90.2641758 L99.3214739,79.503956" id="Shape" stroke="#3B505B" stroke-width="2.85" opacity="0.2" stroke-linecap="round" stroke-linejoin="round"></path>
            <path d="M168.767687,155.776044 L134.790037,143.333352" id="Shape" stroke="#3B505B" stroke-width="2.85" opacity="0.2" stroke-linecap="round" stroke-linejoin="round"></path>
            <path d="M446.267649,78.1351648 L401.492743,115.121044" id="Shape" stroke="#3B505B" stroke-width="2.85" opacity="0.2" stroke-linecap="round" stroke-linejoin="round"></path>
            <path d="M56.7212127,90.2641758 L236.485578,13.1365934" id="Shape" stroke="#3B505B" stroke-width="2.85" stroke-linecap="round" stroke-linejoin="round"></path>
            <path d="M168.767687,155.776044 L56.7212127,90.2641758" id="Shape" stroke="#3B505B" stroke-width="2.85" stroke-linecap="round" stroke-linejoin="round"></path>
            <polyline id="Shape" stroke="#3B505B" stroke-width="2.85" stroke-linecap="round" stroke-linejoin="round" points="270.396754 359.16511 268.715914 431.834615 463.702799 340.686429 349.063843 296.390824"></polyline>
            <polyline id="Shape" stroke="#3B505B" stroke-width="2.85" stroke-linecap="round" stroke-linejoin="round" points="268.715914 431.834615 45.2402239 339.574286 169.489403 293.681758"></polyline>
            <path d="M45.2402239,339.574286 L90.0151306,330.62011" id="Shape" stroke="#3B505B" stroke-width="2.85" opacity="0.2" stroke-linecap="round" stroke-linejoin="round"></path>
            <path d="M45.2402239,340.51533 L90.0151306,366.123132" id="Shape" stroke="#3B505B" stroke-width="2.85" opacity="0.2" stroke-linecap="round" stroke-linejoin="round"></path>
            <polyline id="Shape" stroke="#3B505B" stroke-width="2.85" opacity="0.2" stroke-linecap="round" stroke-linejoin="round" points="223.941007 424.382308 268.715914 431.834615 312.208825 422.471703"></polyline>
            <path d="M236.485578,13.1365934 L281.592854,34.0771978" id="Shape" stroke="#3B505B" stroke-width="2.85" opacity="0.2" stroke-linecap="round" stroke-linejoin="round"></path>
            <path d="M446.267649,78.1351648 L401.492743,70.6543407" id="Shape" stroke="#3B505B" stroke-width="2.85" opacity="0.2" stroke-linecap="round" stroke-linejoin="round"></path>
            <ellipse id="Oval" stroke="#3B505B" stroke-width="2.85" fill="#3B505B" fill-rule="nonzero" cx="56.7212127" cy="90.2641758" rx="5.28942164" ry="5.29456044"></ellipse>
            <ellipse id="Oval" fill="#3B505B" fill-rule="nonzero" opacity="0.15" cx="236.485578" cy="15.8171429" rx="6.40048507" ry="6.4067033"></ellipse>
            <ellipse id="Oval" stroke="#3B505B" stroke-width="2.85" fill="#3B505B" fill-rule="nonzero" cx="236.485578" cy="12.6708242" rx="5.28942164" ry="5.29456044"></ellipse>
            <ellipse id="Oval" fill="#3B505B" fill-rule="nonzero" opacity="0.15" cx="168.767687" cy="158.931868" rx="6.40048507" ry="6.4067033"></ellipse>
            <ellipse id="Oval" stroke="#3B505B" stroke-width="2.85" fill="#3B505B" fill-rule="nonzero" cx="168.767687" cy="155.776044" rx="5.28942164" ry="5.29456044"></ellipse>
            <ellipse id="Oval" fill="#3B505B" fill-rule="nonzero" opacity="0.15" cx="349.738078" cy="140.42467" rx="6.40048507" ry="6.4067033"></ellipse>
            <ellipse id="Oval" stroke="#3B505B" stroke-width="2.85" fill="#3B505B" fill-rule="nonzero" cx="349.738078" cy="137.278352" rx="5.28942164" ry="5.29456044"></ellipse>
            <ellipse id="Oval" fill="#3B505B" fill-rule="nonzero" opacity="0.15" cx="446.267649" cy="80.9297802" rx="6.40048507" ry="6.4067033"></ellipse>
            <ellipse id="Oval" stroke="#3B505B" stroke-width="2.85" fill="#3B505B" fill-rule="nonzero" cx="446.267649" cy="77.7834615" rx="5.28942164" ry="5.29456044"></ellipse>
            <ellipse id="Oval" fill="#3B505B" fill-rule="nonzero" opacity="0.15" cx="463.712295" cy="343.167363" rx="6.40048507" ry="6.4067033"></ellipse>
            <ellipse id="Oval" stroke="#3B505B" stroke-width="2.85" fill="#3B505B" fill-rule="nonzero" cx="463.712295" cy="340.021044" rx="5.28942164" ry="5.29456044"></ellipse>
            <ellipse id="Oval" fill="#3B505B" fill-rule="nonzero" opacity="0.15" cx="349.063843" cy="299.537143" rx="6.40048507" ry="6.4067033"></ellipse>
            <ellipse id="Oval" stroke="#3B505B" stroke-width="2.85" fill="#3B505B" fill-rule="nonzero" cx="349.063843" cy="296.390824" rx="5.28942164" ry="5.29456044"></ellipse>
            <ellipse id="Oval" fill="#3B505B" fill-rule="nonzero" opacity="0.15" cx="169.489403" cy="296.828077" rx="6.40048507" ry="6.4067033"></ellipse>
            <ellipse id="Oval" stroke="#3B505B" stroke-width="2.85" fill="#3B505B" fill-rule="nonzero" cx="169.489403" cy="293.681758" rx="5.28942164" ry="5.29456044"></ellipse>
            <ellipse id="Oval" fill="#3B505B" fill-rule="nonzero" opacity="0.15" cx="270.909552" cy="362.311429" rx="6.40048507" ry="6.4067033"></ellipse>
            <ellipse id="Oval" stroke="#3B505B" stroke-width="2.85" fill="#3B505B" fill-rule="nonzero" cx="270.909552" cy="359.16511" rx="5.28942164" ry="5.29456044"></ellipse>
            <ellipse id="Oval" fill="#3B505B" fill-rule="nonzero" opacity="0.15" cx="242.25931" cy="141.18511" rx="6.40048507" ry="6.4067033"></ellipse>
            <ellipse id="Oval" stroke="#3B505B" stroke-width="2.85" fill="#3B505B" fill-rule="nonzero" cx="242.25931" cy="138.038791" rx="5.28942164" ry="5.29456044"></ellipse>
            <ellipse id="Oval" fill="#3B505B" fill-rule="nonzero" opacity="0.15" cx="268.715914" cy="434.819341" rx="6.40048507" ry="6.4067033"></ellipse>
            <ellipse id="Oval" stroke="#3B505B" stroke-width="2.85" fill="#3B505B" fill-rule="nonzero" cx="268.715914" cy="431.673022" rx="5.28942164" ry="5.29456044"></ellipse>
            <ellipse id="Oval" fill="#3B505B" fill-rule="nonzero" opacity="0.15" cx="45.2402239" cy="341.446868" rx="6.40048507" ry="6.4067033"></ellipse>
            <ellipse id="Oval" stroke="#3B505B" stroke-width="2.85" fill="#3B505B" fill-rule="nonzero" cx="45.2402239" cy="338.300549" rx="5.28942164" ry="5.29456044"></ellipse>
            <path d="M224.244888,239.633516 C221.16566,245.887888 219.585447,252.774678 219.629701,259.747143 C219.629701,267.845824 221.592264,274.233516 225.517388,278.91022 C229.442512,283.586923 234.09885,285.925275 239.486399,285.925275 C243.606514,285.941864 247.559798,284.297345 250.45459,281.362637 C253.551457,278.429037 255.274385,274.327933 255.202724,270.060604 C255.136012,266.056767 253.63272,262.210537 250.967388,259.224341 C248.150162,255.827711 243.71857,254.132564 237.672612,254.138901 C237.554559,249.78291 238.290125,245.445956 239.837761,241.373022 C241.125293,238.119963 243.097771,235.182686 245.620989,232.761044 C248.039372,230.498736 251.568818,228.74022 256.209328,227.485495 L256.209328,215.375495 C249.083363,216.223508 242.345034,219.081674 236.779963,223.616758 C231.521318,228.012431 227.2497,233.470514 224.244888,239.633516 Z" id="Shape" fill="#5EB3E4"></path>
            <path d="M287.898377,232.713516 C290.31676,230.451209 293.846206,228.692692 298.486716,227.437967 L298.486716,215.375495 C291.360751,216.223508 284.622422,219.081674 279.057351,223.616758 C273.788402,228.009534 269.50691,233.467828 266.493787,239.633516 C263.414559,245.887888 261.834346,252.774678 261.878601,259.747143 C261.878601,267.845824 263.841163,274.233516 267.766287,278.91022 C271.691412,283.586923 276.347749,285.925275 281.735299,285.925275 C285.855413,285.941864 289.808697,284.297345 292.703489,281.362637 C295.800356,278.429037 297.523284,274.327933 297.451623,270.060604 C297.384912,266.056767 295.881619,262.210537 293.216287,259.224341 C290.399061,255.827711 285.967469,254.132564 279.921511,254.138901 C279.803458,249.78291 280.539024,245.445956 282.08666,241.373022 C283.37653,238.100342 285.359217,235.146121 287.898377,232.713516 Z" id="Shape" fill="#5EB3E4"></path>
            <path d="M259.99834,115.71989 L259.99834,185.11" id="Shape" stroke="#EA6852" stroke-width="3.8" stroke-linecap="round" stroke-linejoin="round"></path>
            <path d="M259.99834,316.200275 L259.99834,385.580879" id="Shape" stroke="#EA6852" stroke-width="3.8" stroke-linecap="round" stroke-linejoin="round"></path>
            <path d="M280.234888,312.987418 L296.122146,361.95022" id="Shape" stroke="#EA6852" stroke-width="3.8" stroke-linecap="round" stroke-linejoin="round"></path>
            <path d="M223.874534,139.360055 L239.761791,188.313352" id="Shape" stroke="#EA6852" stroke-width="3.8" stroke-linecap="round" stroke-linejoin="round"></path>
            <path d="M180.761474,141.489286 L221.509963,197.628736" id="Shape" stroke="#EA6852" stroke-width="3.8" stroke-linecap="round" stroke-linejoin="round"></path>
            <path d="M298.486716,303.681538 L339.225709,359.811484" id="Shape" stroke="#EA6852" stroke-width="3.8" stroke-linecap="round" stroke-linejoin="round"></path>
            <path d="M312.978022,289.176154 L354.581175,319.441648" id="Shape" stroke="#EA6852" stroke-width="3.8" stroke-linecap="round" stroke-linejoin="round"></path>
            <path d="M165.415504,181.868626 L207.018657,212.124615" id="Shape" stroke="#EA6852" stroke-width="3.8" stroke-linecap="round" stroke-linejoin="round"></path>
            <path d="M131.798713,208.959286 L197.72181,230.394176" id="Shape" stroke="#EA6852" stroke-width="3.8" stroke-linecap="round" stroke-linejoin="round"></path>
            <path d="M322.274869,270.906593 L388.197966,292.350989" id="Shape" stroke="#EA6852" stroke-width="3.8" stroke-linecap="round" stroke-linejoin="round"></path>
            <path d="M325.475112,250.650385 L376.906903,250.650385" id="Shape" stroke="#EA6852" stroke-width="3.8" stroke-linecap="round" stroke-linejoin="round"></path>
            <path d="M143.089776,250.650385 L194.512071,250.650385" id="Shape" stroke="#EA6852" stroke-width="3.8" stroke-linecap="round" stroke-linejoin="round"></path>
            <path d="M131.798713,292.350989 L197.72181,270.906593" id="Shape" stroke="#EA6852" stroke-width="3.8" stroke-linecap="round" stroke-linejoin="round"></path>
            <path d="M322.274869,230.394176 L388.197966,208.959286" id="Shape" stroke="#EA6852" stroke-width="3.8" stroke-linecap="round" stroke-linejoin="round"></path>
            <path d="M312.978022,212.124615 L354.581175,181.868626" id="Shape" stroke="#EA6852" stroke-width="3.8" stroke-linecap="round" stroke-linejoin="round"></path>
            <path d="M165.415504,319.441648 L207.018657,289.176154" id="Shape" stroke="#EA6852" stroke-width="3.8" stroke-linecap="round" stroke-linejoin="round"></path>
            <path d="M180.761474,359.811484 L221.509963,303.681538" id="Shape" stroke="#EA6852" stroke-width="3.8" stroke-linecap="round" stroke-linejoin="round"></path>
            <path d="M298.486716,197.628736 L339.225709,141.489286" id="Shape" stroke="#EA6852" stroke-width="3.8" stroke-linecap="round" stroke-linejoin="round"></path>
            <path d="M280.234888,188.313352 L296.122146,139.360055" id="Shape" stroke="#EA6852" stroke-width="3.8" stroke-linecap="round" stroke-linejoin="round"></path>
            <path d="M223.874534,361.95022 L239.761791,312.987418" id="Shape" stroke="#EA6852" stroke-width="3.8" stroke-linecap="round" stroke-linejoin="round"></path>
            <path d="M252.66722,81.5096154 C251.880523,81.5096154 251.24278,80.8712522 251.24278,80.0837912 L251.24278,44.4191758 L248.507854,44.4191758 C247.990159,44.4231674 247.512189,44.1419503 247.263843,43.6872527 C246.997479,43.2459549 246.997479,42.693221 247.263843,42.2519231 L254.927332,29.6856593 C255.186074,29.2617581 255.646577,29.003211 256.142854,29.003211 C256.639132,29.003211 257.099635,29.2617581 257.358377,29.6856593 L265.031362,42.2519231 C265.298961,42.6919147 265.308663,43.2421729 265.056742,43.6913426 C264.804821,44.1405124 264.330452,44.4187469 263.81584,44.4191758 L261.147388,44.4191758 L261.147388,80.0837912 C261.147388,80.8712522 260.509644,81.5096154 259.722948,81.5096154 L252.66722,81.5096154 Z" id="Shape" fill="#EA6852" fill-rule="nonzero"></path>
            <path d="M256.171343,30.4175824 L263.844328,42.9838462 L259.675466,42.9838462 L259.675466,80.0552747 L252.66722,80.0552747 L252.66722,42.9838462 L248.507854,42.9838462 L256.171343,30.4175824 Z M256.171343,27.5659341 C255.178011,27.5667625 254.256831,28.0854297 253.740299,28.9347253 L246.07681,41.4914835 C245.536595,42.3719522 245.514456,43.4760472 246.01894,44.3775048 C246.523423,45.2789623 247.475599,45.8367403 248.507854,45.8354945 L249.81834,45.8354945 L249.81834,80.0552747 C249.81834,81.6301966 251.093827,82.9069231 252.66722,82.9069231 L259.675466,82.9069231 C261.24886,82.9069231 262.524347,81.6301966 262.524347,80.0552747 L262.524347,45.8354945 L263.844328,45.8354945 C264.876584,45.8367403 265.828759,45.2789623 266.333243,44.3775048 C266.837727,43.4760472 266.815588,42.3719522 266.275373,41.4914835 L258.602388,28.9347253 C258.085856,28.0854297 257.164675,27.5667625 256.171343,27.5659341 Z" id="Shape" fill="#3B505B" fill-rule="nonzero"></path>
            <path d="M232.981455,81.5096154 C232.194759,81.5096154 231.557015,80.8712522 231.557015,80.0837912 L231.557015,57.8314286 L228.860075,57.8314286 C228.345462,57.8309996 227.871093,57.5527652 227.619172,57.1035954 C227.367251,56.6544256 227.376954,56.1041675 227.644552,55.6641758 L235.317537,43.0979121 C235.573082,42.6704555 236.035409,42.4101442 236.53306,42.4135165 C237.02924,42.4157749 237.488993,42.6746371 237.748582,43.0979121 L245.412071,55.6641758 C245.678435,56.1054737 245.678435,56.6582076 245.412071,57.0995055 C245.163725,57.5542031 244.685755,57.8354202 244.16806,57.8314286 L241.433134,57.8314286 L241.433134,80.0837912 C241.433134,80.8712522 240.795391,81.5096154 240.008694,81.5096154 L232.981455,81.5096154 Z" id="Shape" fill="#5EB3E4" fill-rule="nonzero"></path>
            <path d="M236.45709,43.8393407 L244.120578,56.4056044 L239.951716,56.4056044 L239.951716,80.0837912 L232.952966,80.0837912 L232.952966,56.4056044 L228.860075,56.4056044 L236.45709,43.8393407 Z M236.45709,40.9876923 C235.463757,40.9885207 234.542577,41.507188 234.026045,42.3564835 L226.35306,54.9132418 C225.812845,55.7937104 225.790706,56.8978055 226.29519,57.799263 C226.799673,58.7007205 227.751849,59.2584986 228.784104,59.2572527 L230.104086,59.2572527 L230.104086,80.0837912 C230.104086,81.6587131 231.379573,82.9354396 232.952966,82.9354396 L239.951716,82.9354396 C241.52511,82.9354396 242.800597,81.6587131 242.800597,80.0837912 L242.800597,59.2572527 L244.120578,59.2572527 C245.152834,59.2584986 246.105009,58.7007205 246.609493,57.799263 C247.113977,56.8978055 247.091838,55.7937104 246.551623,54.9132418 L238.888134,42.3564835 C238.371602,41.507188 237.450422,40.9885207 236.45709,40.9876923 Z" id="Shape" fill="#3B505B" fill-rule="nonzero"></path>
            <path d="M232.981455,81.5096154 C232.194759,81.5096154 231.557015,80.8712522 231.557015,80.0837912 L231.557015,57.8314286 L228.860075,57.8314286 C228.345462,57.8309996 227.871093,57.5527652 227.619172,57.1035954 C227.367251,56.6544256 227.376954,56.1041675 227.644552,55.6641758 L235.317537,43.0979121 C235.573082,42.6704555 236.035409,42.4101442 236.53306,42.4135165 C237.02924,42.4157749 237.488993,42.6746371 237.748582,43.0979121 L245.412071,55.6641758 C245.678435,56.1054737 245.678435,56.6582076 245.412071,57.0995055 C245.163725,57.5542031 244.685755,57.8354202 244.16806,57.8314286 L241.433134,57.8314286 L241.433134,80.0837912 C241.433134,80.8712522 240.795391,81.5096154 240.008694,81.5096154 L232.981455,81.5096154 Z" id="Shape" fill="#FFC557" fill-rule="nonzero"></path>
            <path d="M236.45709,43.8393407 L244.120578,56.4056044 L239.951716,56.4056044 L239.951716,80.0837912 L232.952966,80.0837912 L232.952966,56.4056044 L228.860075,56.4056044 L236.45709,43.8393407 Z M236.45709,40.9876923 C235.463757,40.9885207 234.542577,41.507188 234.026045,42.3564835 L226.35306,54.9132418 C225.812845,55.7937104 225.790706,56.8978055 226.29519,57.799263 C226.799673,58.7007205 227.751849,59.2584986 228.784104,59.2572527 L230.104086,59.2572527 L230.104086,80.0837912 C230.104086,81.6587131 231.379573,82.9354396 232.952966,82.9354396 L239.951716,82.9354396 C241.52511,82.9354396 242.800597,81.6587131 242.800597,80.0837912 L242.800597,59.2572527 L244.120578,59.2572527 C245.152834,59.2584986 246.105009,58.7007205 246.609493,57.799263 C247.113977,56.8978055 247.091838,55.7937104 246.551623,54.9132418 L238.888134,42.3564835 C238.371602,41.507188 237.450422,40.9885207 236.45709,40.9876923 Z" id="Shape" fill="#3B505B" fill-rule="nonzero"></path>
            <path d="M213.286194,81.5096154 C212.499497,81.5096154 211.861754,80.8712522 211.861754,80.0837912 L211.861754,70.5782967 L209.117332,70.5782967 C208.60272,70.5778678 208.12835,70.2996333 207.876429,69.8504635 C207.624509,69.4012937 207.634211,68.8510356 207.90181,68.411044 L215.565299,55.8447802 C215.82404,55.4208789 216.284544,55.1623319 216.780821,55.1623319 C217.277098,55.1623319 217.737601,55.4208789 217.996343,55.8447802 L225.678825,68.4395604 C225.946423,68.8795521 225.956126,69.4298102 225.704205,69.87898 C225.452284,70.3281498 224.977915,70.6063842 224.463302,70.6068132 L221.718881,70.6068132 L221.718881,80.1123077 C221.718881,80.8997686 221.081137,81.5381319 220.29444,81.5381319 L213.286194,81.5096154 Z" id="Shape" fill="#5EB3E4" fill-rule="nonzero"></path>
            <path d="M216.790317,56.5862088 L224.463302,69.1524725 L220.313433,69.1524725 L220.313433,80.0837912 L213.286194,80.0837912 L213.286194,69.1524725 L209.117332,69.1524725 L216.790317,56.5862088 Z M216.790317,53.7345604 C215.796985,53.7353888 214.875805,54.2540561 214.359272,55.1033516 L206.686287,67.6601099 C206.146072,68.5405785 206.123933,69.6446736 206.628417,70.5461311 C207.132901,71.4475887 208.085077,72.0053667 209.117332,72.0041209 L210.437313,72.0041209 L210.437313,80.0837912 C210.437313,81.6587131 211.712801,82.9354396 213.286194,82.9354396 L220.313433,82.9354396 C221.886826,82.9354396 223.162313,81.6587131 223.162313,80.0837912 L223.162313,72.0041209 L224.482295,72.0041209 C225.51455,72.0053667 226.466726,71.4475887 226.97121,70.5461311 C227.475694,69.6446736 227.453554,68.5405785 226.91334,67.6601099 L219.221362,55.1318681 C218.704829,54.2825726 217.783649,53.7639053 216.790317,53.7630769 L216.790317,53.7345604 Z" id="Shape" fill="#3B505B" fill-rule="nonzero"></path>
            <path d="M47.4813433,122.982088 C49.1311482,122.142839 51.0503594,122.008854 52.800578,122.610741 C54.5507965,123.212627 55.9825162,124.49897 56.768694,126.175934 C57.5528178,124.497085 58.9844517,123.20896 60.7354585,122.606803 C62.4864654,122.004645 64.4067032,122.140088 66.0560448,122.982088 C68.1484808,124.141334 69.5991803,126.191781 69.9969963,128.552308 C70.7315021,125.065199 69.1408596,121.501 66.0560448,119.721703 C64.4067032,118.879704 62.4864654,118.744261 60.7354585,119.346418 C58.9844517,119.948575 57.5528178,121.236701 56.768694,122.915549 C55.973806,121.246937 54.538372,119.971159 52.7890344,119.378528 C51.0396968,118.785897 49.1252515,118.926821 47.4813433,119.769231 C44.3941953,121.546419 42.8027605,125.112393 43.5403918,128.599835 C43.9247056,126.221734 45.3771437,124.151313 47.4813433,122.982088 Z" id="Shape" fill="#FFFFFF" fill-rule="nonzero" opacity="0.5"></path>
            <path d="M224.244888,239.633516 C221.16566,245.887888 219.585447,252.774678 219.629701,259.747143 C219.629701,260.564615 219.629701,261.353571 219.696175,262.142527 C219.979103,255.995303 221.527704,249.972868 224.244888,244.452802 C227.255717,238.288386 231.537664,232.832751 236.808451,228.445549 C242.369146,223.903194 249.109678,221.044094 256.237817,220.204286 L256.237817,215.375495 C249.111852,216.223508 242.373523,219.081674 236.808451,223.616758 C231.539503,228.009534 227.258011,233.467828 224.244888,239.633516 Z M279.057351,223.616758 C273.788402,228.009534 269.50691,233.467828 266.493787,239.633516 C263.414559,245.887888 261.834346,252.774678 261.878601,259.747143 C261.878601,260.564615 261.878601,261.353571 261.945075,262.142527 C262.228002,255.995303 263.776603,249.972868 266.493787,244.452802 C269.504617,238.288386 273.786563,232.832751 279.057351,228.445549 C284.618045,223.903194 291.358577,221.044094 298.486716,220.204286 L298.486716,215.375495 C291.360751,216.223508 284.622422,219.081674 279.057351,223.616758 Z" id="Shape" fill="#FFFFFF" fill-rule="nonzero" opacity="0.2"></path>
            <path d="M349.738078,137.278352 L364.143918,137.278352" id="Shape" stroke="#3B505B" stroke-width="2.85" opacity="0.2" stroke-linecap="round" stroke-linejoin="round"></path>
            <path d="M169.489403,293.681758 L154.029478,304.308901" id="Shape" stroke="#3B505B" stroke-width="2.85" opacity="0.2" stroke-linecap="round" stroke-linejoin="round"></path>
            <path d="M349.063843,296.390824 L374.874701,314.156593" id="Shape" stroke="#3B505B" stroke-width="2.85" opacity="0.2" stroke-linecap="round" stroke-linejoin="round"></path>
            <path d="M45.2402239,402.567198 C30.7650054,402.567198 19.0305224,390.821314 19.0305224,376.332033 C19.0305224,361.842752 30.7650054,350.096868 45.2402239,350.096868 C59.7154423,350.096868 71.4499254,361.842752 71.4499254,376.332033 C71.4342241,390.814799 59.7089336,402.551481 45.2402239,402.567198 Z" id="Shape" fill="#F4F2F2" fill-rule="nonzero"></path>
            <path d="M45.2402239,351.522692 C58.9287457,351.522692 70.0254851,362.630212 70.0254851,376.332033 C70.0254851,390.033853 58.9287457,401.141374 45.2402239,401.141374 C31.5517021,401.141374 20.4549627,390.033853 20.4549627,376.332033 C20.4524424,369.751414 23.0629298,363.439595 27.7116144,358.786394 C32.360299,354.133193 38.6659916,351.52017 45.2402239,351.522692 Z M45.2402239,348.671044 C29.9783088,348.671044 17.6060821,361.055291 17.6060821,376.332033 C17.6060821,391.608775 29.9783088,403.993022 45.2402239,403.993022 C60.502139,403.993022 72.8743657,391.608775 72.8743657,376.332033 C72.8586627,361.061806 60.4956299,348.686762 45.2402239,348.671044 Z" id="Shape" fill="#3B505B" fill-rule="nonzero"></path>
            <path d="M224.244888,239.633516 C221.16566,245.887888 219.585447,252.774678 219.629701,259.747143 C219.629701,267.845824 221.592264,274.233516 225.517388,278.91022 C229.442512,283.586923 234.09885,285.925275 239.486399,285.925275 C243.606514,285.941864 247.559798,284.297345 250.45459,281.362637 C253.551457,278.429037 255.274385,274.327933 255.202724,270.060604 C255.136012,266.056767 253.63272,262.210537 250.967388,259.224341 C248.150162,255.827711 243.71857,254.132564 237.672612,254.138901 C237.554559,249.78291 238.290125,245.445956 239.837761,241.373022 C241.125293,238.119963 243.097771,235.182686 245.620989,232.761044 C248.039372,230.498736 251.568818,228.74022 256.209328,227.485495 L256.209328,215.375495 C249.083363,216.223508 242.345034,219.081674 236.779963,223.616758 C231.521318,228.012431 227.2497,233.470514 224.244888,239.633516 Z" id="Shape" stroke="#3B505B" stroke-width="2.85" stroke-linecap="round" stroke-linejoin="round"></path>
            <path d="M287.898377,232.713516 C290.31676,230.451209 293.846206,228.692692 298.486716,227.437967 L298.486716,215.375495 C291.360751,216.223508 284.622422,219.081674 279.057351,223.616758 C273.788402,228.009534 269.50691,233.467828 266.493787,239.633516 C263.414559,245.887888 261.834346,252.774678 261.878601,259.747143 C261.878601,267.845824 263.841163,274.233516 267.766287,278.91022 C271.691412,283.586923 276.347749,285.925275 281.735299,285.925275 C285.855413,285.941864 289.808697,284.297345 292.703489,281.362637 C295.800356,278.429037 297.523284,274.327933 297.451623,270.060604 C297.384912,266.056767 295.881619,262.210537 293.216287,259.224341 C290.399061,255.827711 285.967469,254.132564 279.921511,254.138901 C279.803458,249.78291 280.539024,245.445956 282.08666,241.373022 C283.37653,238.100342 285.359217,235.146121 287.898377,232.713516 Z" id="Shape" stroke="#3B505B" stroke-width="2.85" stroke-linecap="round" stroke-linejoin="round"></path>
            <path d="M242.25931,135.928571 L240.141642,90.844011" id="Shape" stroke="#3B505B" stroke-width="2.85" stroke-linecap="round" stroke-linejoin="round"></path>
            <path d="M65.001959,388.318462 C73.2624658,389.924781 81.7546237,389.924781 90.0151306,388.318462 L65.001959,413.346429 C66.200785,405.046924 66.200785,396.617966 65.001959,388.318462 Z" id="Shape" stroke="#3B505B" stroke-width="2.85" fill="#C4C6C6" fill-rule="nonzero" stroke-linecap="round" stroke-linejoin="round"></path>
            <path d="M65.001959,388.318462 C65.001959,388.318462 56.6072575,410.608846 33.1039925,413.346429 L65.001959,413.346429 L65.001959,388.318462 Z" id="Shape" fill="#101820" fill-rule="nonzero" opacity="0.15"></path>
            <path d="M236.45709,43.8393407 L230.759328,53.2307692 L228.860075,56.3770879 L230.759328,56.3770879 L232.658582,53.2307692 L237.463694,45.3697253 L236.514067,43.8108242 L236.45709,43.8393407 Z M213.286194,80.0837912 L215.185448,80.0837912 L215.185448,69.1524725 L213.286194,69.1524725 L213.286194,80.0837912 Z M209.117332,69.1524725 L211.016586,69.1524725 L217.739944,58.1451099 L216.790317,56.5862088 L209.117332,69.1524725 Z M232.981455,80.0837912 L234.880709,80.0837912 L234.880709,56.4056044 L232.981455,56.4056044 L232.981455,80.0837912 Z M256.171343,30.4175824 L248.507854,42.9838462 L250.407108,42.9838462 L257.12097,31.9764835 L256.171343,30.4175824 Z M252.66722,80.0742857 L254.566474,80.0742857 L254.566474,43.0028571 L252.66722,43.0028571 L252.66722,80.0742857 Z" id="Shape" fill="#FFFFFF" fill-rule="nonzero" opacity="0.5"></path>
            <path d="M35.3166231,387.577033 L55.1638246,365.077527" id="Shape" stroke="#3B505B" stroke-width="3.8" stroke-linecap="round" stroke-linejoin="round"></path>
            <ellipse id="Oval" stroke="#3B505B" stroke-width="3.8" stroke-linecap="round" stroke-linejoin="round" cx="37.8141418" cy="367.976703" rx="4.39677239" ry="4.40104396"></ellipse>
            <ellipse id="Oval" stroke="#3B505B" stroke-width="3.8" stroke-linecap="round" stroke-linejoin="round" cx="52.666306" cy="384.677857" rx="4.39677239" ry="4.40104396"></ellipse>
            <rect id="Rectangle-path" fill="#5EB3E4" fill-rule="nonzero" x="442.34569" y="372.853022" width="14.3583582" height="29.8282418"></rect>
            <path d="M469.115672,356.731703 C467.492417,356.87335 466.153596,358.062853 465.820466,359.659396 C464.794869,364.744835 462.40181,370.11544 458.88819,373.613462 L456.685056,375.799725 L456.685056,400.352418 L482.590877,400.352418 C484.431747,400.352418 485.924067,398.858648 485.924067,397.015989 L485.924067,396.873407 C485.923232,395.589154 485.18402,394.420064 484.024813,393.86967 C485.814275,393.813186 487.235442,392.344343 487.234552,390.552253 L487.234552,390.40967 C487.232073,389.159028 486.527137,388.01607 485.411269,387.453462 C487.163425,387.35279 488.533396,385.902294 488.535541,384.145549 L488.535541,384.021978 C488.537031,382.737051 487.797098,381.56682 486.636287,381.018242 C488.425167,380.957012 489.846369,379.492465 489.855522,377.700824 L489.855522,377.548736 C489.850288,375.709791 488.3595,374.221806 486.522332,374.221813 L471.746138,374.221813 L472.296922,372.501319 C473.53037,368.625613 473.855313,364.517587 473.246549,360.495879 C473.246549,360.391319 473.246549,360.229725 473.180075,360.011099 C472.899979,358.015312 471.112785,356.585002 469.106175,356.750714 L469.115672,356.731703 Z" id="Shape" stroke="#3B505B" stroke-width="2.85" fill="#FFFFFF" fill-rule="nonzero" stroke-linecap="round" stroke-linejoin="round"></path>
            <rect id="Rectangle-path" fill="#0055B8" fill-rule="nonzero" opacity="0.32" x="443.46625" y="395.228956" width="12.1172388" height="6.51126374"></rect>
            <rect id="Rectangle-path" fill="#FFFFFF" fill-rule="nonzero" opacity="0.5" x="443.46625" y="373.499396" width="12.1172388" height="3.69763736"></rect>
            <rect id="Rectangle-path" stroke="#3B505B" stroke-width="2.85" stroke-linecap="round" stroke-linejoin="round" x="442.34569" y="372.853022" width="14.3583582" height="29.8282418"></rect>
            <ellipse id="Oval" fill="#5EB3E4" fill-rule="nonzero" cx="267.804272" cy="472.974396" rx="25.5069776" ry="25.5317582"></ellipse>
            <path d="M267.794776,447.442637 L267.794776,473.601758 L293.292257,473.601758 C293.292257,473.601758 294.298862,449.952088 267.794776,447.442637 Z" id="Shape" fill="#EA6852" fill-rule="nonzero"></path>
            <ellipse id="Oval" stroke="#3B505B" stroke-width="2.85" stroke-linecap="round" stroke-linejoin="round" cx="267.804272" cy="472.974396" rx="25.5069776" ry="25.5317582"></ellipse>
            <path d="M267.794776,473.601758 L282.305075,493.962527 C289.104097,489.410277 293.216634,481.789177 293.292257,473.601758 L267.794776,473.601758 Z" id="Shape" fill="#FFC557" fill-rule="nonzero"></path>
            <path d="M267.804272,473.601758 L293.301754,473.601758" id="Shape" stroke="#3B505B" stroke-width="2.85" stroke-linecap="round" stroke-linejoin="round"></path>
            <path d="M267.794776,490.730659 C255.207689,490.728148 244.502802,481.538428 242.582183,469.086648 C242.387611,470.373434 242.28921,471.672955 242.287799,472.974396 C242.287799,487.075196 253.707661,498.506154 267.794776,498.506154 C281.881891,498.506154 293.301754,487.075196 293.301754,472.974396 C293.300343,471.672955 293.201942,470.373434 293.007369,469.086648 C291.08675,481.538428 280.381863,490.728148 267.794776,490.730659 Z" id="Shape" fill="#0055B8" fill-rule="nonzero" opacity="0.32"></path>
            <path d="M267.794776,451.805659 C281.034661,451.802195 292.072596,461.946309 293.197295,475.151154 C293.263769,474.428736 293.301754,473.706319 293.301754,472.974396 C293.301754,458.873595 281.881891,447.442637 267.794776,447.442637 C253.707661,447.442637 242.287799,458.873595 242.287799,472.974396 C242.287799,473.706319 242.287799,474.428736 242.392257,475.151154 C243.516957,461.946309 254.554891,451.802195 267.794776,451.805659 Z" id="Shape" fill="#FFFFFF" fill-rule="nonzero" opacity="0.5"></path>
            <polyline id="Shape" stroke="#3B505B" stroke-width="2.85" stroke-linecap="round" stroke-linejoin="round" points="267.804272 447.442637 267.804272 473.601758 282.324067 493.962527"></polyline>
            <ellipse id="Oval" fill="#FFFFFF" fill-rule="nonzero" cx="446.267649" cy="116.632418" rx="24.6618097" ry="24.6857692"></ellipse>
            <ellipse id="Oval" stroke="#3B505B" stroke-width="2.85" stroke-linecap="round" stroke-linejoin="round" cx="267.804272" cy="472.974396" rx="25.5069776" ry="25.5317582"></ellipse>
            <path d="M446.248657,140.110989 C436.761678,140.110989 428.208848,134.390619 424.578338,125.617278 C420.947829,116.843937 422.954606,106.745385 429.662913,100.030561 C436.37122,93.3157361 446.459971,91.3070092 455.224796,94.941046 C463.989622,98.5750828 469.70444,107.136222 469.70444,116.632418 C469.688743,129.592761 459.196421,140.095276 446.248657,140.110989 Z M446.248657,98.5814835 C436.283832,98.5814835 428.205746,106.667418 428.205746,116.641923 C428.205746,126.616428 436.283832,134.702363 446.248657,134.702363 C456.213481,134.702363 464.291567,126.616428 464.291567,116.641923 C464.291567,106.667418 456.213481,98.5814835 446.248657,98.5814835 Z" id="Shape" fill="#EA6852" fill-rule="nonzero"></path>
            <path d="M446.248657,130.653022 C438.512806,130.653022 432.24166,124.375784 432.24166,116.632418 C432.24166,108.889052 438.512806,102.611813 446.248657,102.611813 C453.984507,102.611813 460.255653,108.889052 460.255653,116.632418 C460.245191,124.371442 453.980169,130.64255 446.248657,130.653022 Z M446.248657,108.048956 C441.528477,108.048956 437.702015,111.879135 437.702015,116.603901 C437.702015,121.328667 441.528477,125.158846 446.248657,125.158846 C450.968837,125.158846 454.795299,121.328667 454.795299,116.603901 C454.795299,111.879135 450.968837,108.048956 446.248657,108.048956 Z" id="Shape" fill="#EA6852" fill-rule="nonzero"></path>
            <path d="M446.248657,121.195055 C444.404174,121.198901 442.739173,120.089692 442.030656,118.38506 C441.322139,116.680427 441.709772,114.716398 443.012661,113.409522 C444.315549,112.102645 446.276859,111.71054 447.981311,112.416189 C449.685763,113.121838 450.797365,114.786139 450.797369,116.632418 C450.797375,119.148585 448.762377,121.189813 446.248657,121.195055 Z M446.248657,115.767418 C445.893597,115.763575 445.571532,115.97522 445.433877,116.302851 C445.296222,116.630481 445.370363,117.008917 445.621443,117.260241 C445.872523,117.511565 446.250591,117.585778 446.577904,117.447989 C446.905216,117.3102 447.116656,116.987823 447.112817,116.632418 C447.10768,116.156837 446.723775,115.772559 446.248657,115.767418 Z" id="Shape" fill="#EA6852" fill-rule="nonzero"></path>
            <path d="M446.248657,116.632418 L469.70444,90.3687363" id="Shape" stroke="#3B505B" stroke-width="2.85" stroke-linecap="round" stroke-linejoin="round"></path>
            <path d="M446.267649,116.641923 L470.530616,116.96511" id="Shape" stroke="#3B505B" stroke-width="2.85" opacity="0.2" stroke-linecap="round" stroke-linejoin="round"></path>
            <ellipse id="Oval" stroke="#3B505B" stroke-width="2.85" stroke-linecap="round" stroke-linejoin="round" cx="446.267649" cy="116.632418" rx="24.6618097" ry="24.6857692"></ellipse>
            <path d="M466.076866,128.675879 C466.076866,128.675879 457.720149,150.956758 434.178899,153.703846 L466.076866,153.703846 L466.076866,128.675879 Z" id="Shape" fill="#101820" fill-rule="nonzero" opacity="0.15"></path>
            <path d="M466.029384,128.324176 C474.285781,129.939991 482.776664,129.939991 491.03306,128.324176 L466.029384,153.323626 C467.215566,145.03277 467.215566,136.615032 466.029384,128.324176 Z" id="Shape" stroke="#3B505B" stroke-width="2.85" fill="#C4C6C6" fill-rule="nonzero" stroke-linecap="round" stroke-linejoin="round"></path>
            <polyline id="Shape" stroke="#3B505B" stroke-width="2.85" stroke-linecap="round" stroke-linejoin="round" points="464.282071 88.8573626 465.165224 95.4541758 472.116493 94.9598901"></polyline>
        </g>
    </g>
</svg>