<?xml version="1.0" encoding="UTF-8"?>
<svg width="63px" height="77px" viewBox="0 0 63 77" version="1.1" xmlns="http://www.w3.org/2000/svg" xmlns:xlink="http://www.w3.org/1999/xlink">
    <!-- Generator: Sketch 50.2 (55047) - http://www.bohemiancoding.com/sketch -->
    <title>Artboard</title>
    <desc>Created with Sketch.</desc>
    <defs></defs>
    <g id="Artboard" stroke="none" stroke-width="1" fill="none" fill-rule="evenodd">
        <g id="csb-icon-rgb" fill-rule="nonzero">
            <g id="White" fill="#FFFFFF">
                <path d="M62.8796178,42.7048696 C61.5019108,37.7768696 59.2146497,33.7193043 56.0980892,30.625913 C55.9509554,29.9697391 55.7503185,29.3403478 55.5095541,28.7243478 C57.7700637,27.6262609 59.5356688,26.4076522 60.766242,25.0685217 C62.5318471,23.1535652 62.7859873,21.3591304 62.6923567,20.194087 C62.5853503,18.8013913 61.9700637,17.6497391 60.9267516,16.8596522 C59.8834395,16.0695652 58.5191083,15.7213913 56.6464968,15.7749565 C55.6299363,15.8017391 54.4796178,15.9490435 53.289172,16.149913 C52.4063694,12.4673043 50.9484076,6.84295652 48.6477707,3.33443478 C47.2433121,1.17843478 45.3038217,0.0937391304 42.8828025,0.0937391304 C39.3248408,0.0937391304 35.4726115,2.464 32.6503185,4.19147826 L32.5968153,4.23165217 C32.3426752,4.39234783 32.088535,4.53965217 31.8611465,4.68695652 C29.1458599,3.08 24.9993631,0.870434783 22.1770701,0.334782609 C17.0140127,-0.656173913 15.0477707,3.0933913 14.0847134,4.90121739 L13.977707,5.11547826 C12.3859873,8.10173913 11.3025478,12.0789565 10.366242,16.0829565 C7.32993631,15.6008696 4.84203822,15.5205217 3.08980892,16.8596522 C2.04649682,17.6497391 1.44458599,18.8013913 1.32420382,20.194087 C1.23057325,21.3591304 1.48471338,23.1535652 3.25031847,25.0685217 C4.5343949,26.4612174 6.44713376,27.7601739 8.88152866,28.8984348 C5.75159236,31.3222609 2.12675159,35.5405217 0.120382166,42.7048696 C-0.0535031847,43.3342609 -0.0133757962,43.9904348 0.227388535,44.5662609 L0.374522293,44.9010435 C1.32420382,47.0972174 3.8656051,52.9224348 8.61401274,59.2163478 C14.5929936,67.144 21.9229299,73.0361739 30.3764331,76.7187826 C30.7375796,76.8794783 31.1121019,76.9464348 31.5,76.9464348 C31.8878981,76.9464348 32.2624204,76.866087 32.6101911,76.7187826 C42.3611465,72.5674783 49.3433121,65.6977391 53.810828,59.9796522 C55.2420382,61.2384348 57.1547771,61.2518261 58.5057325,60.6224348 C59.4821656,60.1671304 60.3649682,59.5645217 61.1541401,58.828 C62.7592357,57.3147826 63.0133758,54.8775652 61.7426752,53.1233043 L59.9235669,50.6726957 C61.8229299,47.1641739 62.7191083,44.7403478 62.8261146,44.4591304 C63.0267516,43.8833043 63.0401274,43.2806957 62.8796178,42.7048696 Z M31.5535032,43.5351304 L31.5936306,43.3878261 C31.6203822,43.4146087 31.6471338,43.4547826 31.6738854,43.4815652 C31.6872611,43.4949565 31.7006369,43.5217391 31.7273885,43.5351304 C31.6605096,43.5351304 31.6070064,43.5351304 31.5535032,43.5351304 Z" id="Shape"></path>
            </g>
            <g id="Pantone_427_C" transform="translate(15.000000, 23.000000)" fill="#CFD2D3">
                <g id="Group">
                    <path d="M27.3385159,2.8713355 C32.0918728,2.8713355 36.160424,5.75602606 37.9060071,9.85602606 C37.5568905,4.58078176 33.2734982,0.293811075 27.8353357,0.0400651466 C27.6607774,0.0267100977 27.4996466,0.0267100977 27.3250883,0.0267100977 C24.6798587,0.0267100977 22.1689046,0.988273616 20.2084806,2.76449511 C18.1809187,4.60749186 16.9724382,7.10488599 16.7844523,9.81596091 C18.5300353,5.72931596 22.5985866,2.8713355 27.3385159,2.8713355 Z" id="Shape"></path>
                    <path d="M27.3519435,22.8237785 C27.1639576,22.8237785 26.9625442,22.8237785 26.7745583,22.8104235 C23.4848057,22.6635179 20.4501767,21.2345277 18.2212014,18.8172638 C17.8318021,18.4032573 17.4826855,17.9491857 17.1738516,17.495114 C19.1611307,21.5550489 23.2699647,24.4530945 28.130742,24.6801303 C29.8628975,24.7602606 31.5279152,24.4931596 33.0586572,23.9456026 L31.8233216,21.9957655 C30.4268551,22.5299674 28.9229682,22.8237785 27.3519435,22.8237785 Z" id="Shape"></path>
                    <path d="M33.3943463,21.2211726 L34.6833922,23.237785 C35.3279152,22.8638436 35.9321555,22.4498371 36.5095406,21.9824104 L35.0862191,20.0859935 L33.3943463,21.2211726 Z" id="Shape"></path>
                    <path d="M9.45300353,36.9400651 C10.2318021,38.0218241 11.0777385,39.1035831 11.9773852,40.1586319 C13.5618375,40.6661238 15.2268551,40.9465798 16.9724382,40.9465798 C18.3420495,40.9465798 19.6848057,40.7729642 20.9738516,40.4390879 C21.819788,39.4508143 22.6254417,38.4224756 23.3908127,37.4074919 C21.4169611,38.1820847 19.2551237,38.6361564 16.9858657,38.6361564 C14.2600707,38.6361564 11.7222615,38.0084691 9.45300353,36.9400651 Z" id="Shape"></path>
                    <path d="M15.0120141,9.9762215 C15.0388693,9.30846906 15.1328622,8.66742671 15.2671378,8.02638436 C9.84240283,7.86612378 4.55194346,7.0514658 0.107420495,5.76938111 C0.107420495,6.58403909 0.107420495,7.47882736 0.0939929329,8.41368078 C4.37738516,9.58892508 9.47985866,10.376873 14.9985866,10.5237785 C14.9985866,10.3501629 15.0120141,10.1631922 15.0120141,9.9762215 Z" id="Shape"></path>
                </g>
            </g>
            <g id="Black_6_C" transform="translate(2.000000, 2.000000)" fill="#101820">
                <g id="Group">
                    <path d="M42.5519187,31.9994495 C41.2200903,31.9994495 40.1413093,30.9144954 40.1413093,29.5884404 C40.1413093,29.092844 40.2878104,28.6240367 40.5541761,28.2355963 C40.4343115,28.2222018 40.3011287,28.2222018 40.1812641,28.2222018 C38.11693,28.2222018 36.4388262,29.9099083 36.4388262,31.986055 C36.4388262,34.0622018 38.11693,35.7499083 40.1812641,35.7499083 C42.2455982,35.7499083 43.923702,34.0622018 43.923702,31.986055 C43.923702,31.8521101 43.9103837,31.7181651 43.8970655,31.5976147 C43.5108352,31.8521101 43.0446953,31.9994495 42.5519187,31.9994495 Z" id="Shape"></path>
                    <path d="M28.6076749,50.3633028 C25.1182844,50.3633028 22.0018059,48.313945 20.6566591,45.152844 C20.4702032,44.7108257 19.9507901,44.4965138 19.5112867,44.6974312 C19.0717833,44.8849541 18.8586907,45.4073394 19.058465,45.8493578 C20.6832957,49.666789 24.4257336,52.1313761 28.6076749,52.1313761 C29.0871332,52.1313761 29.4733634,51.7429358 29.4733634,51.2607339 C29.4733634,50.7517431 29.0871332,50.3633028 28.6076749,50.3633028 Z" id="Shape"></path>
                    <path d="M24.5189616,34.2363303 C24.6654628,34.3300917 24.8386005,34.3702752 24.9984199,34.3702752 C25.3047404,34.3702752 25.5977427,34.2095413 25.7708804,33.9282569 C26.037246,33.499633 25.9040632,32.9370642 25.4778781,32.6691743 C23.0672686,31.1689908 20.6167043,31.1689908 18.2060948,32.6691743 C17.7799097,32.9370642 17.6467269,33.499633 17.9130926,33.9282569 C18.1794582,34.3568807 18.7388262,34.4908257 19.1650113,34.2229358 C20.9629797,33.1245872 22.7076749,33.1245872 24.5189616,34.2363303 Z" id="Shape"></path>
                    <path d="M52.2076749,29.6152294 C51.9546275,28.2222018 51.461851,26.9229358 50.7826185,25.7308257 C53.5927765,24.5788991 55.8302483,23.226055 57.2020316,21.7258716 C58.2275395,20.6007339 58.7069977,19.4622018 58.6137698,18.3370642 C58.5471783,17.5066055 58.2142212,16.8636697 57.6282167,16.4082569 C56.2164786,15.3366972 53.5927765,15.6581651 49.730474,16.3948624 C48.9979684,13.273945 47.4663657,6.25522936 44.9492099,2.38422018 C43.7638826,0.562568807 42.3255079,0.0267889908 40.8471783,0.0267889908 C37.837246,0.0267889908 34.2146727,2.27706422 31.6176072,3.87100917 C30.9250564,4.29963303 30.3124153,4.6746789 29.8462754,4.91577982 C29.6598194,4.80862385 23.3336343,0.924220183 19.8575621,0.254495413 C15.9819413,-0.49559633 14.6767494,2.3306422 13.7844244,4.03174312 C11.9997743,7.39376147 10.814447,12.4568807 9.94875847,16.3278899 C6.27291196,15.6447706 3.75575621,15.3768807 2.3972912,16.4082569 C1.81128668,16.8636697 1.47832957,17.5066055 1.41173815,18.3370642 C1.31851016,19.4755963 1.7979684,20.6141284 2.8234763,21.7258716 C4.51489842,23.5743119 7.51151242,25.2084404 11.2805869,26.4943119 C8.11083521,28.0480734 2.73024831,31.9592661 0.133182844,41.2416514 C0.0799097065,41.4157798 0.0799097065,41.6033028 0.146501129,41.7774312 C1.78465011,45.5011009 9.50925508,64.320367 29.1670429,72.9062385 C29.2735892,72.9598165 29.3934537,72.973211 29.5133183,72.973211 C29.6331828,72.973211 29.7397291,72.946422 29.8595937,72.9062385 C40.314447,68.4458716 47.479684,60.6770642 51.7548533,54.6763303 L52.5805869,55.9889908 C53.6726862,57.5829358 55.2841986,56.9801835 55.5905192,56.832844 C56.376298,56.4711927 57.082167,55.9889908 57.7081264,55.3862385 C58.5871332,54.5557798 58.7336343,53.2163303 58.0410835,52.2653211 C58.0410835,52.2653211 58.0410835,52.2653211 58.0410835,52.2653211 L55.4972912,48.8095413 C57.7747178,44.7777982 58.813544,41.9247706 58.8668172,41.7640367 C58.9334086,41.5899083 58.9334086,41.4023853 58.8801354,41.2282569 C57.2952596,35.6159633 54.6981941,31.9726606 52.2076749,29.6152294 Z M50.662754,32.3744954 C50.3963883,38.1877064 45.468623,42.7016514 39.6884876,42.4337615 C36.8916479,42.2998165 34.3079007,41.0809174 32.4167043,38.9913761 C30.5255079,36.9018349 29.5665914,34.2095413 29.686456,31.3833028 C29.8196388,28.5704587 31.0316027,25.9719266 33.1092551,24.0699083 C35.0537246,22.2884404 37.5442438,21.3240367 40.1679458,21.3240367 C40.3410835,21.3240367 40.5009029,21.3240367 40.6740406,21.3374312 C46.4408578,21.6053211 50.9291196,26.5478899 50.662754,32.3744954 Z M11.0408578,20.1185321 C11.2139955,19.0469725 11.6002257,16.8368807 12.172912,14.3187156 C17.5401806,15.7519266 23.6266366,16.5154128 29.7930023,16.5154128 C35.9060948,16.5154128 42.1523702,15.7385321 47.4663657,14.3455046 C47.9591422,16.3680734 48.3853273,18.3772477 48.7049661,20.1185321 C47.8259594,20.44 46.8936795,20.7346789 45.9480813,21.0025688 C44.389842,20.1587156 42.6318284,19.6497248 40.7539503,19.5559633 C37.4909707,19.4086239 34.3611738,20.5337615 31.937246,22.7572477 C31.8040632,22.8777982 31.6841986,22.9983486 31.5643341,23.1188991 C31.0049661,23.1322936 30.4455982,23.1456881 29.8862302,23.1456881 C23.13386,23.1590826 16.3148984,22.0607339 11.0408578,20.1185321 Z M29.5,66.2759633 C26.7963883,63.9453211 24.4257336,61.1190826 22.427991,58.346422 C24.678781,59.4179817 27.1826185,60.0475229 29.872912,60.0475229 C32.123702,60.0475229 34.2546275,59.6055046 36.2257336,58.8152294 C34.3079007,61.4405505 32.0437923,64.0792661 29.5,66.2759633 Z M41.7261851,52.9752294 C38.4498871,56.4042202 34.2413093,58.292844 29.872912,58.292844 C25.5045147,58.292844 21.2959368,56.4042202 18.0196388,52.9752294 C14.9031603,49.720367 13.1185102,45.5680734 13.1185102,41.5765138 C13.1185102,38.2144954 13.1451467,31.4770642 13.158465,27.0836697 C17.5668172,28.3561468 22.8142212,29.1866055 28.1948081,29.3473394 C28.0616253,29.9902752 27.9683973,30.633211 27.9417607,31.3029358 C27.9151242,31.9726606 27.9417607,32.6423853 28.0083521,33.2987156 L25.331377,42.8757798 C25.2514673,43.1436697 25.3047404,43.4249541 25.4778781,43.6392661 C25.6243792,43.826789 26.8097065,45.26 29.8595937,45.26 C30.3656885,45.26 30.9117381,45.2198165 31.5110609,45.1394495 C31.9905192,45.0724771 32.3234763,44.6304587 32.2435666,44.1482569 C32.1769752,43.666055 31.7241535,43.3311927 31.2580135,43.4115596 C28.8873589,43.7598165 27.6620767,43.1838532 27.1559819,42.8355963 L28.8740406,36.6607339 C29.406772,37.933211 30.1525959,39.1253211 31.1115124,40.1700917 C33.3090293,42.6078899 36.3189616,44.0277064 39.5952596,44.1750459 C39.7950339,44.1884404 39.9814898,44.1884404 40.1679458,44.1884404 C41.7261851,44.1884404 43.217833,43.8937615 44.5896163,43.3445872 L46.027991,45.6216514 C45.2688488,48.260367 43.7905192,50.8187156 41.7261851,52.9752294 Z M56.6160271,53.3100917 C56.7891648,53.5377982 56.7358916,53.886055 56.4828442,54.1137615 C55.9900677,54.5825688 55.4306998,54.9576147 54.8180587,55.2388991 C54.7248307,55.2790826 54.6316027,55.3058716 54.5383747,55.3058716 C54.3252822,55.3192661 54.1255079,55.2255046 54.0189616,55.0513761 L46.1878104,42.5944954 C46.7738149,42.259633 47.3331828,41.8711927 47.8659142,41.4425688 L56.6160271,53.3100917 Z" id="Shape"></path>
                </g>
            </g>
        </g>
    </g>
</svg>