<?xml version="1.0" encoding="UTF-8"?>
<svg width="220px" height="175px" viewBox="0 0 220 175" version="1.1" xmlns="http://www.w3.org/2000/svg" xmlns:xlink="http://www.w3.org/1999/xlink">
    <!-- Generator: Sketch 51 (57462) - http://www.bohemiancoding.com/sketch -->
    <title>Artboard 10</title>
    <desc>Created with Sketch.</desc>
    <defs></defs>
    <g id="Artboard-10" stroke="none" stroke-width="1" fill="none" fill-rule="evenodd">
        <g id="icon-home-5-fast-delivery" transform="translate(2.000000, 24.000000)">
            <polygon id="Shape" fill="#1565B8" fill-rule="nonzero" points="179.9 29.5 180.34 29.5 170.84 126.06 170.86 126.07 205.8 97.62 215.06 2.2"></polygon>
            <polygon id="Shape" fill="#5EB3E4" fill-rule="nonzero" points="215.32 0.96 116.21 0.96 81.83 29.04 81.93 29.5 179.9 29.5 215.06 2.2"></polygon>
            <polygon id="Shape" fill="#FFFFFF" fill-rule="nonzero" opacity="0.5" points="215.32 0.96 116.21 0.96 81.83 29.04 81.93 29.5 179.9 29.5 215.06 2.2"></polygon>
            <polygon id="Shape" fill="#5EB3E4" fill-rule="nonzero" points="81.93 29.5 81.23 29.5 71.71 126.16 170.82 126.16 170.84 126.06 180.34 29.5"></polygon>
            <polygon id="Shape" stroke="#3B505B" stroke-width="3" fill="#CBD3D3" fill-rule="nonzero" points="145.74 41.47 145.58 41.47 143 56.66 165.73 56.66 165.74 56.64 168.31 41.47"></polygon>
            <polygon id="Shape" stroke="#3B505B" stroke-width="3" stroke-linecap="round" stroke-linejoin="round" points="179.9 29.5 180.34 29.5 170.84 126.06 170.86 126.07 205.8 97.62 215.06 2.2"></polygon>
            <polygon id="Shape" stroke="#3B505B" stroke-width="3" stroke-linecap="round" stroke-linejoin="round" points="81.93 29.5 81.23 29.5 71.71 126.16 170.82 126.16 170.84 126.06 180.34 29.5"></polygon>
            <polygon id="Shape" stroke="#3B505B" stroke-width="3" stroke-linecap="round" stroke-linejoin="round" points="215.32 0.96 116.21 0.96 81.83 29.04 81.93 29.5 179.9 29.5 215.06 2.2"></polygon>
            <polygon id="Shape" points="179.9 29.5 180.34 29.5 170.84 126.06 170.86 126.07 205.8 97.62 215.06 2.2"></polygon>
            <polygon id="Shape" stroke="#3B505B" stroke-width="3" stroke-linecap="round" stroke-linejoin="round" points="179.9 29.5 180.34 29.5 170.84 126.06 170.86 126.07 205.8 97.62 215.06 2.2"></polygon>
            <path d="M83.22,50.21 L116.36,50.21" id="Shape" stroke="#EA6852" stroke-width="3" stroke-linecap="round" stroke-linejoin="round"></path>
            <path d="M60.43,50.21 L73.32,50.21" id="Shape" stroke="#EA6852" stroke-width="3" stroke-linecap="round" stroke-linejoin="round"></path>
            <path d="M32.12,50.21 L50.53,50.21" id="Shape" stroke="#EA6852" stroke-width="3" stroke-linecap="round" stroke-linejoin="round"></path>
            <path d="M62.04,96.7 L99.79,96.7" id="Shape" stroke="#EA6852" stroke-width="3" stroke-linecap="round" stroke-linejoin="round"></path>
            <path d="M29.13,96.7 L53.76,96.7" id="Shape" stroke="#EA6852" stroke-width="3" stroke-linecap="round" stroke-linejoin="round"></path>
            <path d="M0.82,96.7 L19.23,96.7" id="Shape" stroke="#EA6852" stroke-width="3" stroke-linecap="round" stroke-linejoin="round"></path>
            <path d="M68.03,73.46 L109.91,73.46" id="Shape" stroke="#EA6852" stroke-width="3" stroke-linecap="round" stroke-linejoin="round"></path>
            <path d="M45.24,73.46 L58.13,73.46" id="Shape" stroke="#EA6852" stroke-width="3" stroke-linecap="round" stroke-linejoin="round"></path>
            <path d="M16.93,73.46 L35.34,73.46" id="Shape" stroke="#EA6852" stroke-width="3" stroke-linecap="round" stroke-linejoin="round"></path>
        </g>
    </g>
</svg>