<?xml version="1.0" encoding="UTF-8"?>
<svg width="155px" height="175px" viewBox="0 0 155 175" version="1.1" xmlns="http://www.w3.org/2000/svg" xmlns:xlink="http://www.w3.org/1999/xlink">
    <!-- Generator: Sketch 51 (57462) - http://www.bohemiancoding.com/sketch -->
    <title>Artboard 11</title>
    <desc>Created with Sketch.</desc>
    <defs></defs>
    <g id="Artboard-11" stroke="none" stroke-width="1" fill="none" fill-rule="evenodd">
        <g id="icon-home-6-powerful-assets" transform="translate(2.500000, 4.500000)">
            <polygon id="Shape" fill="#5EB3E4" fill-rule="nonzero" points="135.95 48.29 48.59 48.29 14.92 73.97 15 74.39 103.84 74.39 135.71 49.43"></polygon>
            <polygon id="Shape" fill="#FFFFFF" fill-rule="nonzero" opacity="0.5" points="135.95 48.29 48.08 48.29 14.29 74.39 103.65 74.39"></polygon>
            <polygon id="Shape" stroke="#3B505B" stroke-width="3" stroke-linecap="round" stroke-linejoin="round" points="134.69 48.29 47.1 48.29 13.34 73.97 13.42 74.39 102.49 74.39"></polygon>
            <path d="M48.38,47.96 L48.38,73.21" id="Shape" stroke="#3B505B" stroke-width="3" fill="#5EB3E4" fill-rule="nonzero"></path>
            <polygon id="Shape" stroke="#3B505B" stroke-width="3" fill="#E2E8E8" fill-rule="nonzero" stroke-linecap="round" stroke-linejoin="round" points="81.29 10.87 39.58 10.87 39.58 78.63 93.47 78.63 93.47 23.05 93.47 10.87"></polygon>
            <path d="M52.97,27.83 L73.95,27.83" id="Shape" stroke="#3B505B" stroke-width="3" fill="#E2E8E8" fill-rule="nonzero" stroke-linecap="round" stroke-linejoin="round"></path>
            <path d="M52.97,39.11 L82.26,39.11" id="Shape" stroke="#3B505B" stroke-width="3" fill="#E2E8E8" fill-rule="nonzero" stroke-linecap="round" stroke-linejoin="round"></path>
            <path d="M52.97,50.39 L82.26,50.39" id="Shape" stroke="#3B505B" stroke-width="3" fill="#E2E8E8" fill-rule="nonzero" stroke-linecap="round" stroke-linejoin="round"></path>
            <path d="M52.97,61.67 L82.26,61.67" id="Shape" stroke="#3B505B" stroke-width="3" fill="#E2E8E8" fill-rule="nonzero" stroke-linecap="round" stroke-linejoin="round"></path>
            <polygon id="Shape" fill="#C2C9CA" fill-rule="nonzero" points="44.8 10.87 39.58 10.87 39.58 78.63 93.47 78.63 93.47 72.95 44.8 72.95"></polygon>
            <polygon id="Shape" stroke="#3B505B" stroke-width="3" stroke-linecap="round" stroke-linejoin="round" points="81.29 10.87 39.58 10.87 39.58 78.63 93.47 78.63 93.47 23.05 93.47 10.87"></polygon>
            <polygon id="Shape" stroke="#3B505B" stroke-width="3" fill="#FFFFFF" fill-rule="nonzero" stroke-linecap="round" stroke-linejoin="round" points="45.71 16.09 45.71 83.85 99.6 83.85 99.6 28.27 87.43 16.09"></polygon>
            <polygon id="Shape" stroke="#3B505B" stroke-width="3" fill="#E2E8E8" fill-rule="nonzero" stroke-linecap="round" stroke-linejoin="round" points="87.43 16.09 99.6 28.27 87.43 28.27"></polygon>
            <path d="M59.1,33.06 L80.09,33.06" id="Shape" stroke="#3B505B" stroke-width="3" fill="#E2E8E8" fill-rule="nonzero" stroke-linecap="round" stroke-linejoin="round"></path>
            <path d="M59.1,44.33 L88.39,44.33" id="Shape" stroke="#3B505B" stroke-width="3" fill="#E2E8E8" fill-rule="nonzero" stroke-linecap="round" stroke-linejoin="round"></path>
            <path d="M59.1,55.61 L88.39,55.61" id="Shape" stroke="#3B505B" stroke-width="3" fill="#E2E8E8" fill-rule="nonzero" stroke-linecap="round" stroke-linejoin="round"></path>
            <path d="M59.1,66.89 L88.39,66.89" id="Shape" stroke="#3B505B" stroke-width="3" fill="#E2E8E8" fill-rule="nonzero" stroke-linecap="round" stroke-linejoin="round"></path>
            <polygon id="Shape" fill="#C2C9CA" fill-rule="nonzero" points="50.93 16.09 45.71 16.09 45.71 83.85 99.6 83.85 99.6 78.18 50.93 78.18"></polygon>
            <polygon id="Shape" stroke="#3B505B" stroke-width="3" stroke-linecap="round" stroke-linejoin="round" points="45.71 16.09 45.71 83.85 99.6 83.85 99.6 28.27 87.43 16.09"></polygon>
            <polygon id="Shape" stroke="#3B505B" stroke-width="3" fill="#E2E8E8" fill-rule="nonzero" stroke-linecap="round" stroke-linejoin="round" points="56.37 37.52 21.39 37.52 21.39 94.34 66.59 94.34 66.59 47.73 66.59 37.52"></polygon>
            <path d="M32.62,51.74 L50.22,51.74" id="Shape" stroke="#3B505B" stroke-width="3" fill="#E2E8E8" fill-rule="nonzero" stroke-linecap="round" stroke-linejoin="round"></path>
            <path d="M32.62,61.2 L57.19,61.2" id="Shape" stroke="#3B505B" stroke-width="3" fill="#E2E8E8" fill-rule="nonzero" stroke-linecap="round" stroke-linejoin="round"></path>
            <path d="M32.62,70.65 L57.19,70.65" id="Shape" stroke="#3B505B" stroke-width="3" fill="#E2E8E8" fill-rule="nonzero" stroke-linecap="round" stroke-linejoin="round"></path>
            <path d="M32.62,80.11 L57.19,80.11" id="Shape" stroke="#3B505B" stroke-width="3" fill="#E2E8E8" fill-rule="nonzero" stroke-linecap="round" stroke-linejoin="round"></path>
            <polygon id="Shape" fill="#C2C9CA" fill-rule="nonzero" points="25.77 37.52 21.39 37.52 21.39 94.34 66.59 94.34 66.59 89.58 25.77 89.58"></polygon>
            <polygon id="Shape" stroke="#3B505B" stroke-width="3" stroke-linecap="round" stroke-linejoin="round" points="56.37 37.52 21.39 37.52 21.39 94.34 66.59 94.34 66.59 47.73 66.59 37.52"></polygon>
            <polygon id="Shape" stroke="#3B505B" stroke-width="3" fill="#FFFFFF" fill-rule="nonzero" stroke-linecap="round" stroke-linejoin="round" points="26.53 41.89 26.53 98.72 71.73 98.72 71.73 52.11 61.51 41.89"></polygon>
            <polygon id="Shape" stroke="#3B505B" stroke-width="3" fill="#E2E8E8" fill-rule="nonzero" stroke-linecap="round" stroke-linejoin="round" points="61.51 41.89 71.73 52.11 61.51 52.11"></polygon>
            <polygon id="Shape" fill="#C2C9CA" fill-rule="nonzero" points="30.91 41.89 26.53 41.89 26.53 98.72 71.73 98.72 71.73 93.96 30.91 93.96"></polygon>
            <path d="M34.97,86.33 L59.53,86.33" id="Shape" stroke="#3B505B" stroke-width="3" fill="#E2E8E8" fill-rule="nonzero" stroke-linecap="round" stroke-linejoin="round"></path>
            <path d="M65.77,83.56 L62.34,86.99" id="Shape" stroke="#3B505B" stroke-width="3" stroke-linecap="round" stroke-linejoin="round"></path>
            <path d="M65.77,86.99 L62.34,83.56" id="Shape" stroke="#3B505B" stroke-width="3" stroke-linecap="round" stroke-linejoin="round"></path>
            <path d="M34.97,74.65 L48.25,74.65" id="Shape" stroke="#3B505B" stroke-width="3" fill="#E2E8E8" fill-rule="nonzero" stroke-linecap="round" stroke-linejoin="round"></path>
            <polyline id="Shape" stroke="#EA6852" stroke-width="2.5" stroke-linecap="round" stroke-linejoin="round" points="51.89 73.64 53.68 75.44 57.19 71.37"></polyline>
            <path d="M34.97,64.63 L48.25,64.63" id="Shape" stroke="#3B505B" stroke-width="3" fill="#E2E8E8" fill-rule="nonzero" stroke-linecap="round" stroke-linejoin="round"></path>
            <polyline id="Shape" stroke="#EA6852" stroke-width="2.5" stroke-linecap="round" stroke-linejoin="round" points="51.89 64.11 53.68 65.91 57.19 61.85"></polyline>
            <path d="M34.97,55.1 L48.25,55.1" id="Shape" stroke="#3B505B" stroke-width="3" fill="#E2E8E8" fill-rule="nonzero" stroke-linecap="round" stroke-linejoin="round"></path>
            <polyline id="Shape" stroke="#EA6852" stroke-width="2.5" stroke-linecap="round" stroke-linejoin="round" points="51.89 54.58 53.68 56.38 57.19 52.32"></polyline>
            <polygon id="Shape" stroke="#3B505B" stroke-width="3" stroke-linecap="round" stroke-linejoin="round" points="26.53 41.89 26.53 98.72 71.73 98.72 71.73 52.11 61.51 41.89"></polygon>
            <path d="M143.12,35.28 L143.12,47.19" id="Shape" stroke="#EA6852" stroke-width="3" stroke-linecap="round" stroke-linejoin="round"></path>
            <path d="M149.07,41.23 L137.16,41.23" id="Shape" stroke="#EA6852" stroke-width="3" stroke-linecap="round" stroke-linejoin="round"></path>
            <path d="M128.45,10.75 L128.45,28.19" id="Shape" stroke="#EA6852" stroke-width="3" stroke-linecap="round" stroke-linejoin="round"></path>
            <path d="M137.16,19.47 L119.73,19.47" id="Shape" stroke="#EA6852" stroke-width="3" stroke-linecap="round" stroke-linejoin="round"></path>
            <circle id="Oval" fill="#EA6852" fill-rule="nonzero" cx="110.1" cy="30.62" r="1.62"></circle>
            <circle id="Oval" fill="#EA6852" fill-rule="nonzero" cx="136.05" cy="2.23" r="1.62"></circle>
            <circle id="Oval" fill="#EA6852" fill-rule="nonzero" cx="114.94" cy="5.46" r="1.62"></circle>
            <path d="M14.61,15.82 L14.61,33.26" id="Shape" stroke="#EA6852" stroke-width="3" stroke-linecap="round" stroke-linejoin="round"></path>
            <path d="M23.33,24.54 L5.89,24.54" id="Shape" stroke="#EA6852" stroke-width="3" stroke-linecap="round" stroke-linejoin="round"></path>
            <circle id="Oval" fill="#EA6852" fill-rule="nonzero" cx="26.53" cy="14.48" r="1.62"></circle>
            <circle id="Oval" fill="#EA6852" fill-rule="nonzero" cx="5.89" cy="41.23" r="1.62"></circle>
            <circle id="Oval" fill="#EA6852" fill-rule="nonzero" cx="4.28" cy="10.75" r="1.62"></circle>
            <circle id="Oval" fill="#EA6852" fill-rule="nonzero" cx="103.98" cy="16.1" r="1.62"></circle>
            <circle id="Oval" fill="#EA6852" fill-rule="nonzero" cx="148.38" cy="23.8" r="1.62"></circle>
            <rect id="Rectangle-path" stroke="#3B505B" stroke-width="3" fill="#5EB3E4" fill-rule="nonzero" stroke-linecap="round" stroke-linejoin="round" x="71.91" y="41.23" width="55.26" height="33.73"></rect>
            <rect id="Rectangle-path" stroke="#3B505B" stroke-width="3" fill="#FFFFFF" fill-rule="nonzero" stroke-linecap="round" stroke-linejoin="round" x="79.12" y="41.23" width="40.84" height="33.73"></rect>
            <polygon id="Shape" stroke="#EA6852" stroke-width="2" fill="#EA6852" fill-rule="nonzero" stroke-linecap="round" stroke-linejoin="round" points="94.9 53.54 94.9 62.65 104.18 58.26"></polygon>
            <rect id="Rectangle-path" fill="#4094D5" fill-rule="nonzero" x="73.9" y="69.74" width="3.21" height="5.34"></rect>
            <rect id="Rectangle-path" fill="#4094D5" fill-rule="nonzero" x="73.9" y="60.37" width="3.21" height="4.52"></rect>
            <rect id="Rectangle-path" fill="#4094D5" fill-rule="nonzero" x="73.9" y="51.01" width="3.21" height="4.52"></rect>
            <rect id="Rectangle-path" fill="#4094D5" fill-rule="nonzero" x="121.89" y="69.74" width="3.21" height="5.34"></rect>
            <rect id="Rectangle-path" fill="#4094D5" fill-rule="nonzero" x="121.89" y="60.37" width="3.21" height="4.52"></rect>
            <rect id="Rectangle-path" fill="#4094D5" fill-rule="nonzero" x="121.89" y="51.01" width="3.21" height="4.52"></rect>
            <rect id="Rectangle-path" fill="#4094D5" fill-rule="nonzero" x="73.9" y="42.43" width="3.21" height="3.95"></rect>
            <rect id="Rectangle-path" fill="#4094D5" fill-rule="nonzero" x="121.89" y="42.43" width="3.21" height="3.95"></rect>
            <polygon id="Shape" fill="#1565B8" fill-rule="nonzero" points="103.57 74.39 103.97 74.39 104.09 165.29 104.1 165.3 136.05 139.29 135.71 49.43"></polygon>
            <polygon id="Shape" stroke="#3B505B" stroke-width="3" stroke-linecap="round" stroke-linejoin="round" points="103.44 74.39 103.84 74.39 103.96 165.29 103.98 165.3 135.04 139.29 134.7 49.43"></polygon>
            <polygon id="Shape" stroke="#3B505B" stroke-width="3" fill="#5EB3E4" fill-rule="nonzero" points="103.54 74.56 134.87 49.22 148.38 75.31 115.56 100.65"></polygon>
            <polygon id="Shape" fill="#5EB3E4" fill-rule="nonzero" points="13.98 74.39 13.35 74.39 13.45 165.38 104.07 165.38 104.09 165.29 103.97 74.39"></polygon>
            <polygon id="Shape" fill="#4094D5" fill-rule="nonzero" points="103.99 87.85 103.97 74.39 13.98 74.39 13.35 74.39 13.38 108.72 94.15 108.72"></polygon>
            <polygon id="Shape" stroke="#3B505B" stroke-width="3" stroke-linecap="round" stroke-linejoin="round" points="13.98 74.39 13.35 74.39 13.45 165.38 104.07 165.38 104.09 165.29 103.97 74.39"></polygon>
            <polygon id="Shape" stroke="#3B505B" stroke-width="3" fill="#5EB3E4" fill-rule="nonzero" points="101.61 74.24 13.51 74.24 0 100.34 89.58 100.34"></polygon>
        </g>
    </g>
</svg>