<?xml version="1.0" encoding="UTF-8"?>
<svg width="182px" height="175px" viewBox="0 0 182 175" version="1.1" xmlns="http://www.w3.org/2000/svg" xmlns:xlink="http://www.w3.org/1999/xlink">
    <!-- Generator: Sketch 51 (57462) - http://www.bohemiancoding.com/sketch -->
    <title>Artboard 9</title>
    <desc>Created with Sketch.</desc>
    <defs></defs>
    <g id="Artboard-9" stroke="none" stroke-width="1" fill="none" fill-rule="evenodd">
        <g id="icon-home-4-expert-team" transform="translate(2.000000, 15.500000)">
            <path d="M117.63,27.23 C117.63,26.98 117.54,26.74 117.49,26.49 C117.44,26.24 117.38,25.86 117.31,25.55 C117.24,25.24 117.21,25.03 117.15,24.76 C117.09,24.49 117.02,24.16 116.95,23.86 C116.88,23.56 116.84,23.37 116.78,23.12 C116.66,22.63 116.54,22.12 116.41,21.65 L116.23,21.05 C116.14,20.72 116.05,20.4 115.95,20.05 L115.74,19.36 L115.44,18.46 C115.37,18.25 115.3,18.04 115.22,17.83 C115.05,17.37 114.88,16.91 114.7,16.45 L114.5,15.98 C114.37,15.65 114.23,15.33 114.09,14.98 L113.82,14.41 C113.693333,14.1233333 113.553333,13.8333333 113.4,13.54 C113.31,13.37 113.23,13.19 113.14,13.02 C112.92,12.6 112.69,12.18 112.45,11.77 L112.24,11.43 C112.05,11.11 111.86,10.8 111.66,10.5 C111.46,10.2 111.46,10.19 111.35,10.04 C111.24,9.89 110.98,9.5 110.79,9.24 L110.49,8.83 C110.2,8.46 109.91,8.09 109.61,7.74 C109.538195,7.67150764 109.471359,7.59798832 109.41,7.52 C109.15,7.23 108.9,6.95 108.63,6.68 L108.28,6.33 C108.04,6.09 107.8,5.87 107.56,5.65 L107.2,5.34 C106.85,5.03 106.49,4.73 106.12,4.45 L105.94,4.33 C105.62,4.09 105.28,3.86 104.94,3.63 L104.53,3.38 C104.24,3.2 103.94,3.03 103.64,2.86 L103.24,2.64 C102.81,2.42 102.38,2.21 101.93,2.01 L101.79,2.01 C101.38,1.83 100.96,1.67 100.53,1.52 L100.07,1.36 L99,1.05 L98.54,0.93 C98.03,0.8 97.54,0.68 96.99,0.58 L96.9,0.58 C96.4,0.49 95.9,0.42 95.35,0.36 L94.83,0.3 C94.42,0.3 94,0.23 93.58,0.21 L93.04,0.21 C92.46,0.21 91.87,0.21 91.26,0.21 C90.65,0.21 90.06,0.21 89.48,0.3 L88.95,0.3 L87.69,0.45 L87.18,0.53 C86.6266667,0.61 86.0866667,0.71 85.56,0.83 L85.51,0.83 C85,0.95 84.51,1.08 84,1.23 L83.54,1.37 C83.17,1.49 82.81,1.61 82.46,1.74 L82.02,1.9 C81.54,2.09 81.08,2.28 80.62,2.49 C80.18,2.69 79.75,2.92 79.33,3.15 L78.94,3.37 C78.63,3.55 78.32,3.74 78.02,3.94 L77.65,4.18 C77.25,4.45 76.85,4.73 76.47,5.02 L76.41,5.02 C76.04,5.31 75.69,5.6 75.35,5.91 L75.01,6.21 L74.25,6.94 L73.93,7.26 C73.6,7.6 73.27,7.96 72.93,8.32 L72.86,8.41 C72.57,8.75 72.28,9.11 72,9.47 L71.72,9.85 C71.51,10.14 71.3,10.42 71.1,10.72 L70.84,11.11 C70.57,11.52 70.3,11.93 70.05,12.36 L69.98,12.49 C69.75,12.88 69.52,13.28 69.31,13.69 L69.07,14.14 C68.91,14.46 68.74,14.79 68.59,15.14 C68.51,15.29 68.44,15.44 68.37,15.59 C68.16,16.05 67.95,16.52 67.75,16.99 L67.68,17.18 C67.5,17.6 67.33,18.04 67.17,18.48 L66.99,18.99 C66.86,19.34 66.74,19.69 66.62,20.05 C66.56,20.22 66.5,20.39 66.45,20.56 C66.29,21.07 66.13,21.56 65.98,22.09 L65.92,22.33 C65.79,22.78 65.67,23.23 65.55,23.69 C65.5,23.88 65.46,24.07 65.41,24.26 L65.14,25.38 L65,26 C64.88,26.53 64.77,27.07 64.67,27.61 C59.9,52.61 67.76,85.69 67.76,85.69 L113.76,86.6 C113.76,86.6 122,52.59 117.63,27.23 Z M90.55,60.31 C79.64,60.1 71.03,48.25 71.32,33.84 C71.3790945,29.752097 72.2068272,25.7118114 73.76,21.93 C77.94,19.05 81.76,16.04 85.08,13.31 C92.66,18.67 101.44,23.74 109.88,26 C110.556349,28.8253067 110.86888,31.7254624 110.81,34.63 C110.52,49 101.45,60.53 90.55,60.31 Z" id="Shape" stroke="#3B505B" stroke-width="3" fill="#FFC557" fill-rule="nonzero"></path>
            <path d="M64.65,34.12 C64.75,33.58 64.86,33.04 64.98,32.51 L65.1,31.95 L65.37,30.83 C65.37,30.64 65.46,30.45 65.51,30.26 C65.63,29.8 65.75,29.35 65.88,28.9 L65.94,28.66 C66.09,28.14 66.25,27.66 66.41,27.13 C66.41,26.96 66.52,26.79 66.58,26.62 C66.7,26.26 66.82,25.91 66.95,25.56 L67.13,25.05 C67.29,24.61 67.46,24.17 67.64,23.75 L67.71,23.56 C67.91,23.09 68.12,22.62 68.33,22.16 C68.4,22.01 68.47,21.86 68.55,21.71 C68.7,21.38 68.87,21.05 69.03,20.71 L69.27,20.26 C69.48,19.85 69.71,19.45 69.94,19.06 L70,19 C70.25,18.57 70.52,18.16 70.79,17.75 L71.05,17.36 C71.25,17.06 71.46,16.78 71.67,16.49 L71.95,16.11 C72.23,15.75 72.52,15.39 72.81,15.05 L72.88,14.96 C73.19,14.6 73.52,14.24 73.88,13.9 L74.2,13.58 L74.96,12.85 L75.3,12.55 C75.64,12.24 75.99,11.95 76.36,11.66 L76.42,11.66 C76.8,11.37 77.2,11.09 77.6,10.82 L77.97,10.58 C78.27,10.38 78.58,10.19 78.89,10.01 L79.28,9.79 C79.7,9.56 80.13,9.33 80.57,9.13 C81.03,8.92 81.49,8.73 81.97,8.54 L82.41,8.38 C82.76,8.25 83.12,8.13 83.49,8.01 L83.95,7.87 C84.44,7.72 84.95,7.59 85.46,7.47 L85.51,7.47 C86.0366667,7.35 86.5766667,7.25 87.13,7.17 L87.64,7.09 L88.9,6.94 L89.43,6.94 C90.01,6.94 90.6,6.86 91.21,6.85 C91.82,6.85 92.41,6.85 92.99,6.85 L93.53,6.85 C93.95,6.85 94.37,6.85 94.78,6.94 L95.3,7 C95.83,7.06 96.35,7.13 96.85,7.22 L97,7.22 C97.53,7.32 98,7.44 98.55,7.57 L99.01,7.69 L100.08,8.01 L100.54,8.17 C100.97,8.32 101.39,8.48 101.8,8.66 L101.94,8.66 C102.39,8.86 102.82,9.07 103.25,9.29 L103.65,9.51 C103.95,9.68 104.25,9.85 104.54,10.03 L104.95,10.28 C105.29,10.51 105.63,10.74 105.95,10.98 L106.13,11.1 C106.5,11.38 106.86,11.68 107.21,11.99 L107.57,12.3 C107.81,12.52 108.05,12.74 108.29,12.98 L108.64,13.33 C108.91,13.6 109.16,13.88 109.42,14.17 C109.481359,14.2479883 109.548195,14.3215076 109.62,14.39 C109.92,14.74 110.21,15.11 110.5,15.48 L110.8,15.89 C110.99,16.15 111.18,16.42 111.36,16.69 C111.54,16.96 111.57,16.99 111.67,17.15 C111.77,17.31 112.06,17.76 112.25,18.08 L112.46,18.42 C112.7,18.83 112.93,19.25 113.15,19.67 C113.24,19.84 113.32,20.02 113.41,20.19 C113.5,20.36 113.7,20.77 113.83,21.06 L114.1,21.63 C114.24,21.95 114.38,22.27 114.51,22.63 L114.71,23.1 C114.89,23.56 115.06,24.02 115.23,24.48 C115.31,24.69 115.38,24.9 115.45,25.11 L115.75,26.01 L115.96,26.7 C116.06,27.02 116.15,27.34 116.24,27.7 L116.42,28.3 C116.55,28.79 116.67,29.3 116.79,29.77 C116.85,30.02 116.9,30.26 116.96,30.51 C117.02,30.76 117.1,31.11 117.16,31.41 C117.22,31.71 117.27,31.94 117.32,32.2 C117.37,32.46 117.44,32.83 117.5,33.14 C117.56,33.45 117.59,33.63 117.64,33.88 C118.383756,38.3905553 118.798184,42.9492683 118.88,47.52 C119.118176,40.7823733 118.702902,34.0375205 117.64,27.38 C117.64,27.13 117.55,26.89 117.5,26.64 C117.45,26.39 117.39,26.01 117.32,25.7 C117.25,25.39 117.22,25.18 117.16,24.91 C117.1,24.64 117.03,24.31 116.96,24.01 C116.89,23.71 116.85,23.52 116.79,23.27 C116.67,22.78 116.55,22.27 116.42,21.8 L116.24,21.2 C116.15,20.87 116.06,20.55 115.96,20.2 L115.75,19.51 L115.45,18.61 C115.38,18.4 115.31,18.19 115.23,17.98 C115.06,17.52 114.89,17.06 114.71,16.6 L114.51,16.13 C114.38,15.8 114.24,15.48 114.1,15.13 L113.83,14.56 C113.703333,14.2733333 113.563333,13.9833333 113.41,13.69 C113.32,13.52 113.24,13.34 113.15,13.17 C112.93,12.75 112.7,12.33 112.46,11.92 L112.25,11.58 C112.06,11.26 111.87,10.95 111.67,10.65 C111.47,10.35 111.47,10.34 111.36,10.19 C111.25,10.04 110.99,9.65 110.8,9.39 L110.5,8.98 C110.21,8.61 109.92,8.24 109.62,7.89 C109.548195,7.82150764 109.481359,7.74798832 109.42,7.67 C109.16,7.38 108.91,7.1 108.64,6.83 L108.29,6.48 C108.05,6.24 107.81,6.02 107.57,5.8 L107.21,5.49 C106.86,5.18 106.5,4.88 106.13,4.6 L105.95,4.48 C105.63,4.24 105.29,4.01 104.95,3.78 L104.54,3.53 C104.25,3.35 103.95,3.18 103.65,3.01 L103.25,2.79 C102.82,2.57 102.39,2.36 101.94,2.16 L101.8,2.16 C101.39,1.98 100.97,1.82 100.54,1.67 L100.08,1.51 L99,1.05 L98.54,0.93 C98.03,0.8 97.54,0.68 96.99,0.58 L96.9,0.58 C96.4,0.49 95.9,0.42 95.35,0.36 L94.83,0.3 C94.42,0.3 94,0.23 93.58,0.21 L93.04,0.21 C92.46,0.21 91.87,0.21 91.26,0.21 C90.65,0.21 90.06,0.21 89.48,0.3 L88.95,0.3 L87.69,0.45 L87.18,0.53 C86.6266667,0.61 86.0866667,0.71 85.56,0.83 L85.51,0.83 C85,0.95 84.51,1.08 84,1.23 L83.54,1.37 C83.17,1.49 82.81,1.61 82.46,1.74 L82.02,1.9 C81.54,2.09 81.08,2.28 80.62,2.49 C80.18,2.69 79.75,2.92 79.33,3.15 L78.94,3.37 C78.63,3.55 78.32,3.74 78.02,3.94 L77.65,4.18 C77.25,4.45 76.85,4.73 76.47,5.02 L76.41,5.02 C76.04,5.31 75.69,5.6 75.35,5.91 L75.01,6.21 L74.25,6.94 L73.93,7.26 C73.6,7.6 73.27,7.96 72.93,8.32 L72.86,8.41 C72.57,8.75 72.28,9.11 72,9.47 L71.72,9.85 C71.51,10.14 71.3,10.42 71.1,10.72 L70.84,11.11 C70.57,11.52 70.3,11.93 70.05,12.36 L69.98,12.49 C69.75,12.88 69.52,13.28 69.31,13.69 L69.07,14.14 C68.91,14.46 68.74,14.79 68.59,15.14 C68.51,15.29 68.44,15.44 68.37,15.59 C68.16,16.05 67.95,16.52 67.75,16.99 L67.68,17.18 C67.5,17.6 67.33,18.04 67.17,18.48 L66.99,18.99 C66.86,19.34 66.74,19.69 66.62,20.05 C66.56,20.22 66.5,20.39 66.45,20.56 C66.29,21.07 66.13,21.56 65.98,22.09 L65.92,22.33 C65.79,22.78 65.67,23.23 65.55,23.69 C65.5,23.88 65.46,24.07 65.41,24.26 L65.14,25.38 L65,26 C64.88,26.53 64.77,27.07 64.67,27.61 C63.4224154,34.7284147 62.9197029,41.9574211 63.17,49.18 C63.2566731,44.1283183 63.7516187,39.0919122 64.65,34.12 Z" id="Shape" fill="#FFFFFF" fill-rule="nonzero" opacity="0.5"></path>
            <path d="M117.63,27.23 C117.63,26.98 117.54,26.74 117.49,26.49 C117.44,26.24 117.38,25.86 117.31,25.55 C117.24,25.24 117.21,25.03 117.15,24.76 C117.09,24.49 117.02,24.16 116.95,23.86 C116.88,23.56 116.84,23.37 116.78,23.12 C116.66,22.63 116.54,22.12 116.41,21.65 L116.23,21.05 C116.14,20.72 116.05,20.4 115.95,20.05 L115.74,19.36 L115.44,18.46 C115.37,18.25 115.3,18.04 115.22,17.83 C115.05,17.37 114.88,16.91 114.7,16.45 L114.5,15.98 C114.37,15.65 114.23,15.33 114.09,14.98 L113.82,14.41 C113.693333,14.1233333 113.553333,13.8333333 113.4,13.54 C113.31,13.37 113.23,13.19 113.14,13.02 C112.92,12.6 112.69,12.18 112.45,11.77 L112.24,11.43 C112.05,11.11 111.86,10.8 111.66,10.5 C111.46,10.2 111.46,10.19 111.35,10.04 C111.24,9.89 110.98,9.5 110.79,9.24 L110.49,8.83 C110.2,8.46 109.91,8.09 109.61,7.74 C109.538195,7.67150764 109.471359,7.59798832 109.41,7.52 C109.15,7.23 108.9,6.95 108.63,6.68 L108.28,6.33 C108.04,6.09 107.8,5.87 107.56,5.65 L107.2,5.34 C106.85,5.03 106.49,4.73 106.12,4.45 L105.94,4.33 C105.62,4.09 105.28,3.86 104.94,3.63 L104.53,3.38 C104.24,3.2 103.94,3.03 103.64,2.86 L103.24,2.64 C102.81,2.42 102.38,2.21 101.93,2.01 L101.79,2.01 C101.38,1.83 100.96,1.67 100.53,1.52 L100.07,1.36 L99,1.05 L98.54,0.93 C98.03,0.8 97.54,0.68 96.99,0.58 L96.9,0.58 C96.4,0.49 95.9,0.42 95.35,0.36 L94.83,0.3 C94.42,0.3 94,0.23 93.58,0.21 L93.04,0.21 C92.46,0.21 91.87,0.21 91.26,0.21 C90.65,0.21 90.06,0.21 89.48,0.3 L88.95,0.3 L87.69,0.45 L87.18,0.53 C86.6266667,0.61 86.0866667,0.71 85.56,0.83 L85.51,0.83 C85,0.95 84.51,1.08 84,1.23 L83.54,1.37 C83.17,1.49 82.81,1.61 82.46,1.74 L82.02,1.9 C81.54,2.09 81.08,2.28 80.62,2.49 C80.18,2.69 79.75,2.92 79.33,3.15 L78.94,3.37 C78.63,3.55 78.32,3.74 78.02,3.94 L77.65,4.18 C77.25,4.45 76.85,4.73 76.47,5.02 L76.41,5.02 C76.04,5.31 75.69,5.6 75.35,5.91 L75.01,6.21 L74.25,6.94 L73.93,7.26 C73.6,7.6 73.27,7.96 72.93,8.32 L72.86,8.41 C72.57,8.75 72.28,9.11 72,9.47 L71.72,9.85 C71.51,10.14 71.3,10.42 71.1,10.72 L70.84,11.11 C70.57,11.52 70.3,11.93 70.05,12.36 L69.98,12.49 C69.75,12.88 69.52,13.28 69.31,13.69 L69.07,14.14 C68.91,14.46 68.74,14.79 68.59,15.14 C68.51,15.29 68.44,15.44 68.37,15.59 C68.16,16.05 67.95,16.52 67.75,16.99 L67.68,17.18 C67.5,17.6 67.33,18.04 67.17,18.48 L66.99,18.99 C66.86,19.34 66.74,19.69 66.62,20.05 C66.56,20.22 66.5,20.39 66.45,20.56 C66.29,21.07 66.13,21.56 65.98,22.09 L65.92,22.33 C65.79,22.78 65.67,23.23 65.55,23.69 C65.5,23.88 65.46,24.07 65.41,24.26 L65.14,25.38 L65,26 C64.88,26.53 64.77,27.07 64.67,27.61 C59.9,52.61 67.76,85.69 67.76,85.69 L113.76,86.6 C113.76,86.6 122,52.59 117.63,27.23 Z M90.55,60.31 C79.64,60.1 71.03,48.25 71.32,33.84 C71.3790945,29.752097 72.2068272,25.7118114 73.76,21.93 C77.94,19.05 81.76,16.04 85.08,13.31 C92.66,18.67 101.44,23.74 109.88,26 C110.556349,28.8253067 110.86888,31.7254624 110.81,34.63 C110.52,49 101.45,60.53 90.55,60.31 Z" id="Shape" stroke="#3B505B" stroke-width="3"></path>
            <path d="M67.64,17.25 L67.71,17.06 L67.64,17.25 Z" id="Shape" stroke="#3B505B" stroke-width="3" fill="#FFFFFF" fill-rule="nonzero"></path>
            <path d="M67,19.06 L67.18,18.55 L67,19.06 Z" id="Shape" stroke="#3B505B" stroke-width="3" fill="#FFFFFF" fill-rule="nonzero"></path>
            <path d="M68.33,15.66 C68.4,15.51 68.47,15.36 68.55,15.21 C68.47,15.36 68.4,15.51 68.33,15.66 Z" id="Shape" stroke="#3B505B" stroke-width="3" fill="#FFFFFF" fill-rule="nonzero"></path>
            <path d="M65.37,24.33 C65.37,24.14 65.46,23.95 65.51,23.76 C65.46,24 65.42,24.14 65.37,24.33 Z" id="Shape" stroke="#3B505B" stroke-width="3" fill="#FFFFFF" fill-rule="nonzero"></path>
            <path d="M65,26 L65.12,25.44 L65,26 Z" id="Shape" stroke="#3B505B" stroke-width="3" fill="#FFFFFF" fill-rule="nonzero"></path>
            <path d="M65.88,22.4 L65.94,22.16 L65.88,22.4 Z" id="Shape" stroke="#3B505B" stroke-width="3" fill="#FFFFFF" fill-rule="nonzero"></path>
            <path d="M69,14.23 L69.24,13.78 L69,14.23 Z" id="Shape" stroke="#3B505B" stroke-width="3" fill="#FFFFFF" fill-rule="nonzero"></path>
            <path d="M66.41,20.63 C66.41,20.46 66.52,20.29 66.58,20.12 C66.52,20.29 66.46,20.46 66.41,20.63 Z" id="Shape" stroke="#3B505B" stroke-width="3" fill="#FFFFFF" fill-rule="nonzero"></path>
            <path d="M69.94,12.58 L70.01,12.45 L69.94,12.58 Z" id="Shape" stroke="#3B505B" stroke-width="3" fill="#FFFFFF" fill-rule="nonzero"></path>
            <path d="M65.1,25.45 L65.37,24.33 L65.1,25.45 Z" id="Shape" stroke="#3B505B" stroke-width="3" fill="#FFFFFF" fill-rule="nonzero"></path>
            <path d="M64.65,27.62 C64.75,27.08 64.86,26.54 64.98,26.01 C64.86,26.54 64.75,27.08 64.65,27.62 Z" id="Shape" stroke="#3B505B" stroke-width="3" fill="#FFFFFF" fill-rule="nonzero"></path>
            <path d="M66.58,20.12 C66.7,19.76 66.82,19.41 66.95,19.06 C66.82,19.41 66.7,19.76 66.58,20.12 Z" id="Shape" stroke="#3B505B" stroke-width="3" fill="#FFFFFF" fill-rule="nonzero"></path>
            <path d="M67.71,17.06 C67.91,16.59 68.12,16.12 68.33,15.66 C68.12,16.12 67.91,16.59 67.71,17.06 Z" id="Shape" stroke="#3B505B" stroke-width="3" fill="#FFFFFF" fill-rule="nonzero"></path>
            <path d="M65.94,22.16 C66.09,21.64 66.25,21.16 66.41,20.63 C66.25,21.14 66.09,21.64 65.94,22.16 Z" id="Shape" stroke="#3B505B" stroke-width="3" fill="#FFFFFF" fill-rule="nonzero"></path>
            <path d="M67.13,18.55 C67.29,18.11 67.46,17.67 67.64,17.25 C67.46,17.67 67.29,18.11 67.13,18.55 Z" id="Shape" stroke="#3B505B" stroke-width="3" fill="#FFFFFF" fill-rule="nonzero"></path>
            <path d="M68.55,15.21 C68.7,14.88 68.87,14.55 69.03,14.21 C68.87,14.55 68.7,14.88 68.55,15.21 Z" id="Shape" stroke="#3B505B" stroke-width="3" fill="#FFFFFF" fill-rule="nonzero"></path>
            <path d="M69.27,13.78 C69.48,13.37 69.71,12.97 69.94,12.58 C69.71,13 69.48,13.37 69.27,13.78 Z" id="Shape" stroke="#3B505B" stroke-width="3" fill="#FFFFFF" fill-rule="nonzero"></path>
            <path d="M65.51,23.76 C65.63,23.3 65.75,22.85 65.88,22.4 C65.75,22.85 65.63,23.3 65.51,23.76 Z" id="Shape" stroke="#3B505B" stroke-width="3" fill="#FFFFFF" fill-rule="nonzero"></path>
            <path d="M64.63,92.84 C65.05,79.03 77.63,68.22 92.75,68.68 C107.87,69.14 119.75,80.68 119.35,94.5" id="Shape" stroke="#3B505B" stroke-width="3" fill="#FFFFFF" fill-rule="nonzero" stroke-linecap="round"></path>
            <path d="M88.35,60.11 C88.0283735,60.6532176 87.8494843,61.2690092 87.83,61.9 L87.58,70.15 C87.5164873,72.287342 89.197658,74.0714873 91.335,74.135 C93.472342,74.1985127 95.2564873,72.517342 95.32,70.38 L95.57,62.14 C95.5986219,61.2936733 95.341477,60.4623554 94.84,59.78 C93.442184,60.1582689 91.9978479,60.3367066 90.55,60.31 C89.8126499,60.2993344 89.0771857,60.232474 88.35,60.11 Z" id="Shape" stroke="#3B505B" stroke-width="3" fill="#FFFFFF" fill-rule="nonzero"></path>
            <path d="M109.88,26 C101.44,23.74 92.66,18.67 85.08,13.31 C81.8,16.04 77.94,19.05 73.76,21.93 C72.2068272,25.7118114 71.3790945,29.752097 71.32,33.84 C71.05,47.26 78.51,58.46 88.32,60.11 C89.0471857,60.232474 89.7826499,60.2993344 90.52,60.31 C91.9678479,60.3367066 93.412184,60.1582689 94.81,59.78 C103.71,57.37 110.53,47.09 110.81,34.63 C110.86888,31.7254624 110.556349,28.8253067 109.88,26 Z" id="Shape" stroke="#3B505B" stroke-width="3" fill="#FFFFFF" fill-rule="nonzero"></path>
            <circle id="Oval" fill="#3B505B" fill-rule="nonzero" cx="83.31" cy="29" r="2.38"></circle>
            <circle id="Oval" fill="#3B505B" fill-rule="nonzero" cx="97.93" cy="28.49" r="2.37"></circle>
            <path d="M85,49.87 C85,49.87 90.76,53.98 96.17,50.09" id="Shape" stroke="#3B505B" stroke-width="3" stroke-linecap="round"></path>
            <path d="M86.64,38.57 L89.4,39.51 C90.3033924,39.8212723 91.2803088,39.8491842 92.2,39.59 L95.31,38.74" id="Shape" stroke="#3B505B" stroke-width="3" stroke-linecap="round"></path>
            <path d="M62.72,107.41 C62.72,93.61 52.36,82.41 39.59,82.41 C28.93,82.41 19.96,90.22 17.28,100.83 C16.7390109,102.981412 16.4669343,105.191615 16.47,107.41 L14.63,141.83 L65.3,142.16 L62.72,107.41 Z" id="Shape" stroke="#3B505B" stroke-width="3" fill="#EA6852" fill-rule="nonzero" stroke-linecap="round" stroke-linejoin="round"></path>
            <path d="M62.72,107.41 C62.72,93.61 52.36,82.41 39.59,82.41 C28.93,82.41 19.96,90.22 17.28,100.83 C16.7390109,102.981412 16.4669343,105.191615 16.47,107.41 L14.63,141.83 L65.3,142.16 L62.72,107.41 Z" id="Shape" stroke="#3B505B" stroke-width="3" stroke-linecap="round" stroke-linejoin="round"></path>
            <path d="M41.34,88.7 C49.3444798,88.7668046 56.7980453,92.7874622 61.25,99.44 C57.84,89.73 49.15,82.78 38.9,82.44 C28.54,82.78 19.9,90.44 17.28,100.83 C16.7390109,102.981412 16.4669343,105.191615 16.47,107.41 L16.37,109.22 L17.53,108 C20.38,96.88 30,88.7 41.34,88.7 Z" id="Shape" fill="#F7BAB2" fill-rule="nonzero"></path>
            <path d="M62.72,107.41 C62.72,93.61 52.36,82.41 39.59,82.41 C28.93,82.41 19.96,90.22 17.28,100.83 C16.7390109,102.981412 16.4669343,105.191615 16.47,107.41 L14.63,141.83 L65.3,142.16 L62.72,107.41 Z" id="Shape" stroke="#3B505B" stroke-width="3" stroke-linecap="round" stroke-linejoin="round"></path>
            <rect id="Rectangle-path" stroke="#3B505B" stroke-width="3" fill="#FFFFFF" fill-rule="nonzero" x="34.47" y="71.91" width="7.75" height="16" rx="3.87"></rect>
            <ellipse id="Oval" stroke="#3B505B" stroke-width="3" fill="#FFFFFF" fill-rule="nonzero" transform="translate(38.071006, 42.407538) rotate(-4.060000) translate(-38.071006, -42.407538) " cx="38.0710064" cy="42.4075379" rx="19.86" ry="33.62"></ellipse>
            <path d="M48,40 C48,40 50.62,53.07 40.78,49.4" id="Shape" stroke="#3B505B" stroke-width="3" stroke-linecap="round"></path>
            <path d="M33.47,57.66 C33.47,57.66 36.47,63.91 42.47,61.41" id="Shape" stroke="#3B505B" stroke-width="3" stroke-linecap="round"></path>
            <path d="M16.63,44.83 C13.63,44.83 11.24,41.62 11.22,37.63 C11.2,33.64 13.58,30.39 16.55,30.37" id="Shape" stroke="#3B505B" stroke-width="3" stroke-linecap="round"></path>
            <circle id="Oval" stroke="#3B505B" stroke-width="3" fill="#FFFFFF" fill-rule="nonzero" stroke-linecap="round" cx="33.18" cy="33.75" r="6.25"></circle>
            <circle id="Oval" stroke="#3B505B" stroke-width="3" fill="#FFFFFF" fill-rule="nonzero" stroke-linecap="round" cx="52.81" cy="31.06" r="6.25"></circle>
            <path d="M39.69,33.77 C39.69,33.77 41.31,30.84 46.69,32.77" id="Shape" stroke="#3B505B" stroke-width="3" fill="#FFFFFF" fill-rule="nonzero" stroke-linecap="round"></path>
            <path d="M116.38,107.41 C116.38,93.61 126.74,82.41 139.51,82.41 C150.17,82.41 159.14,90.22 161.82,100.83 C162.360989,102.981412 162.633066,105.191615 162.63,107.41 L164.47,141.83 L113.8,142.16 L116.38,107.41 Z" id="Shape" stroke="#3B505B" stroke-width="3" fill="#E2E8E8" fill-rule="nonzero" stroke-linecap="round" stroke-linejoin="round"></path>
            <path d="M116.38,107.41 C116.38,93.61 126.74,82.41 139.51,82.41 C150.17,82.41 159.14,90.22 161.82,100.83 C162.360989,102.981412 162.633066,105.191615 162.63,107.41 L164.47,141.83 L113.8,142.16 L116.38,107.41 Z" id="Shape" stroke="#3B505B" stroke-width="3" stroke-linecap="round" stroke-linejoin="round"></path>
            <path d="M137.76,88.7 C129.752866,88.7669969 122.296365,92.787219 117.84,99.44 C121.26,89.73 129.95,82.78 140.2,82.44 C150.56,82.78 159.2,90.44 161.82,100.83 C162.360989,102.981412 162.633066,105.191615 162.63,107.41 L162.73,109.22 L161.57,108 C158.72,96.88 149.14,88.7 137.76,88.7 Z" id="Shape" fill="#FFFFFF" fill-rule="nonzero"></path>
            <path d="M116.38,107.41 C116.38,93.61 126.74,82.41 139.51,82.41 C150.17,82.41 159.14,90.22 161.82,100.83 C162.360989,102.981412 162.633066,105.191615 162.63,107.41 L164.47,141.83 L113.8,142.16 L116.38,107.41 Z" id="Shape" stroke="#3B505B" stroke-width="3" stroke-linecap="round" stroke-linejoin="round"></path>
            <path d="M144,81.89 L144.2,75.17 C151.07,73.1 157.13,65.58 159.89,52.02 C160.711854,48.1220512 161.084284,44.142756 161,40.16 L161.6,40.16 L161.11,53.58 C164.11,53.69 166.6,50.58 166.75,46.58 C166.943727,44.1402255 165.9855,41.750208 164.16,40.12 L165.78,40.12 C165.78,40.12 176.18,10.42 147.72,8.81 C119.26,7.2 126,41.08 126,41.08 L126.56,41.08 C126.21,42.35 125.88,43.68 125.56,45.08 C122.02,62.56 127.45,72.92 136.43,75.28 L136.22,82.01 L144,81.89 Z" id="Shape" fill="#FFFFFF" fill-rule="nonzero"></path>
            <rect id="Rectangle-path" stroke="#3B505B" stroke-width="3" fill="#FFFFFF" fill-rule="nonzero" transform="translate(140.046820, 79.152701) rotate(1.740000) translate(-140.046820, -79.152701) " x="136.17182" y="71.1527005" width="7.75" height="16" rx="3.87"></rect>
            <path d="M159.74,52 C156.09,70 146.59,77.37 137.12,75.45 C127.65,73.53 121.78,63.04 125.44,45.03 C129.1,27.02 138.93,18 148.4,19.9 C157.87,21.8 163.4,34 159.74,52 Z" id="Shape" stroke="#3B505B" stroke-width="3" fill="#FFFFFF" fill-rule="nonzero"></path>
            <path d="M138.3,42.21 C138.3,42.21 131.75,52.01 134.93,54.36 C138.11,56.71 142.01,51.82 142.01,51.82" id="Shape" stroke="#3B505B" stroke-width="3" stroke-linecap="round"></path>
            <path d="M133.46,66.46 C133.46,66.46 139.38,71.1 144.02,65.18" id="Shape" stroke="#3B505B" stroke-width="3" stroke-linecap="round"></path>
            <path d="M161,53.57 C164,53.67 166.49,50.57 166.63,46.57 C166.77,42.57 164.49,39.26 161.52,39.15" id="Shape" stroke="#3B505B" stroke-width="3" stroke-linecap="round"></path>
            <path d="M165.63,40 C165.63,40 176,10.34 147.57,8.72 C119.14,7.1 125.83,41.08 125.83,41.08" id="Shape" stroke="#3B505B" stroke-width="3" stroke-linecap="round"></path>
            <circle id="Oval" fill="#3B505B" fill-rule="nonzero" cx="132.8" cy="38.16" r="2.38"></circle>
            <circle id="Oval" fill="#3B505B" fill-rule="nonzero" cx="146.51" cy="39.58" r="2.38"></circle>
            <path d="M124.92,62.81 C124.92,62.81 143.71,53.63 156.13,64.76" id="Shape" stroke="#3B505B" stroke-width="3"></path>
            <path d="M45.33,136.84 L132,136.84 C132,140.153708 129.313708,142.84 126,142.84 L51.31,142.84 C47.9962915,142.84 45.31,140.153708 45.31,136.84 L45.33,136.84 Z" id="Shape" fill="#4094D5" fill-rule="nonzero"></path>
            <path d="M45.33,136.84 L132,136.84 C132,140.153708 129.313708,142.84 126,142.84 L51.31,142.84 C47.9962915,142.84 45.31,140.153708 45.31,136.84 L45.33,136.84 Z" id="Shape" stroke="#3B505B" stroke-width="3" stroke-linecap="round" stroke-linejoin="round"></path>
            <path d="M42,136.84 L128.63,136.84 C128.63,140.153708 125.943708,142.84 122.63,142.84 L48,142.84 C44.6862915,142.84 42,140.153708 42,136.84 Z" id="Shape" fill="#5EB3E4" fill-rule="nonzero"></path>
            <path d="M122.67,140 L48,140 C45.7963231,139.994377 43.77307,138.781193 42.73,136.84 L42,136.84 C42,140.153708 44.6862915,142.84 48,142.84 L122.68,142.84 C125.993708,142.84 128.68,140.153708 128.68,136.84 L127.97,136.84 C126.921835,138.790673 124.88444,140.005422 122.67,140 Z" id="Shape" fill="#4094D5" fill-rule="nonzero"></path>
            <path d="M42,136.84 L128.63,136.84 C128.63,140.153708 125.943708,142.84 122.63,142.84 L48,142.84 C44.6862915,142.84 42,140.153708 42,136.84 Z" id="Shape" stroke="#3B505B" stroke-width="3" stroke-linecap="round" stroke-linejoin="round"></path>
            <path d="M133.86,93.85 C133.783938,90.5910912 131.119796,87.9891125 127.86,87.99 L59.57,87.99 C56.2562915,87.99 53.57,90.6762915 53.57,93.99 L53.57,136.67 C53.57,139.983708 56.2562915,142.67 59.57,142.67 L127.85,142.67 C131.109796,142.670888 133.773938,140.068909 133.85,136.81 L133.86,93.85 Z" id="Shape" stroke="#3B505B" stroke-width="3" fill="#1565B8" fill-rule="nonzero"></path>
            <path d="M125.57,88.13 L54.63,88.13 C53.8256112,88.1298883 53.0548732,88.4528131 52.4908044,89.026283 C51.9267357,89.599753 51.6165935,90.3757229 51.63,91.18 L51.63,139.76 C51.6165935,140.564277 51.9267357,141.340247 52.4908044,141.913717 C53.0548732,142.487187 53.8256112,142.810112 54.63,142.81 L125.57,142.81 C126.383023,142.823667 127.166769,142.50672 127.741744,141.931744 C128.31672,141.356769 128.633667,140.573023 128.62,139.76 L128.62,91.18 C128.633667,90.3669769 128.31672,89.5832312 127.741744,89.0082559 C127.166769,88.4332805 126.383023,88.1163328 125.57,88.13 Z" id="Shape" stroke="#3B505B" stroke-width="3" fill="#5EB3E4" fill-rule="nonzero"></path>
            <path d="M125.57,88.13 L54.63,88.13 C53.8256112,88.1298883 53.0548732,88.4528131 52.4908044,89.026283 C51.9267357,89.599753 51.6165935,90.3757229 51.63,91.18 L51.63,139.76 C51.6165935,140.564277 51.9267357,141.340247 52.4908044,141.913717 C53.0548732,142.487187 53.8256112,142.810112 54.63,142.81 L125.57,142.81 C126.383023,142.823667 127.166769,142.50672 127.741744,141.931744 C128.31672,141.356769 128.633667,140.573023 128.62,139.76 L128.62,91.18 C128.633667,90.3669769 128.31672,89.5832312 127.741744,89.0082559 C127.166769,88.4332805 126.383023,88.1163328 125.57,88.13 Z" id="Shape" stroke="#3B505B" stroke-width="3"></path>
            <path d="M91.77,109.2 C88.4562915,109.2 85.77,111.886292 85.77,115.2 C85.77,115.4 85.77,115.6 85.77,115.8 C86.2209567,118.72631 88.7391468,120.886162 91.7,120.886162 C94.6608532,120.886162 97.1790433,118.72631 97.63,115.8 C97.63,115.6 97.63,115.4 97.63,115.2 C97.6308875,111.940204 95.0289088,109.276062 91.77,109.2 Z" id="Shape" fill="#1565B8" fill-rule="nonzero"></path>
            <path d="M91.77,110.41 C94.8188686,110.427632 97.3697514,112.729019 97.7,115.76 C97.7,115.56 97.7,115.36 97.7,115.16 C97.966242,112.865821 96.8920444,110.622483 94.9378374,109.391541 C92.9836304,108.1606 90.4963696,108.1606 88.5421626,109.391541 C86.5879556,110.622483 85.513758,112.865821 85.78,115.16 C85.78,115.36 85.78,115.56 85.78,115.76 C86.1127543,112.706245 88.6981969,110.397044 91.77,110.41 Z" id="Shape" fill="#1565B8" fill-rule="nonzero"></path>
            <circle id="Oval" stroke="#3B505B" stroke-width="3" fill="#1565B8" fill-rule="nonzero" cx="91.77" cy="115.16" r="6.02"></circle>
            <path d="M0.8,142.83 L177.3,142.83" id="Shape" stroke="#3B505B" stroke-width="3" fill="#FFFFFF" fill-rule="nonzero" stroke-linecap="round"></path>
        </g>
    </g>
</svg>